<svg xmlns="http://www.w3.org/2000/svg" width="128" height="128"><path d="M0 0h128v128H0z" style="fill:#fff"/><path d="M2.98 2.98h2.98v2.98H2.98z"/><path d="M5.95 2.98h2.98v2.98H5.95zm2.98 0h2.98v2.98H8.93zm2.98 0h2.98v2.98h-2.98z"/><path d="M14.88 2.98h2.98v2.98h-2.98zm2.98 0h2.98v2.98h-2.98zm2.98 0h2.98v2.98h-2.98zm5.95 0h2.98v2.98h-2.98zm5.95 0h2.98v2.98h-2.98zm20.84 0h2.98v2.98h-2.98zm2.98 0h2.98v2.98h-2.98zm14.88 0h2.98v2.98h-2.98zm8.93 0h2.98v2.98h-2.98zm5.96 0h2.98v2.98h-2.98z"/><path d="M89.3 2.98h2.98v2.98H89.3zm2.98 0h2.98v2.98h-2.98zm2.98 0h2.98v2.98h-2.98z"/><path d="M98.23 2.98h2.98v2.98h-2.98zm5.96 0h2.98v2.98h-2.98z"/><path d="M107.16 2.98h2.98v2.98h-2.98zm2.98 0h2.98v2.98h-2.98zm2.98 0h2.98v2.98h-2.98z"/><path d="M116.09 2.98h2.98v2.98h-2.98z"/><path d="M119.07 2.98h2.98v2.98h-2.98zm2.98 0h2.98v2.98h-2.98zM2.98 5.95h2.98v2.98H2.98zm17.86 0h2.98v2.98h-2.98zm23.81 0h2.98v2.98h-2.98zm8.93 0h2.98v2.98h-2.98zm2.98 0h2.98v2.98h-2.98zm5.95 0h2.98v2.98h-2.98zm2.98 0h2.98v2.98h-2.98zm2.98 0h2.98v2.98h-2.98z"/><path d="M71.44 5.95h2.98v2.98h-2.98zm5.96 0h2.98v2.98H77.4zm5.95 0h2.98v2.98h-2.98zm2.98 0h2.98v2.98h-2.98zm5.95 0h2.98v2.98h-2.98zm5.95 0h2.98v2.98h-2.98zm5.96 0h2.98v2.98h-2.98zm17.86 0h2.98v2.98h-2.98zM2.98 8.93h2.98v2.98H2.98zm5.95 0h2.98v2.98H8.93zm2.98 0h2.98v2.98h-2.98z"/><path d="M14.88 8.93h2.98v2.98h-2.98zm5.96 0h2.98v2.98h-2.98zm8.93 0h2.98v2.98h-2.98z"/><path d="M32.74 8.93h2.98v2.98h-2.98zm2.98 0h2.98v2.98h-2.98zm11.91 0h2.98v2.98h-2.98zm11.9 0h2.98v2.98h-2.98zm5.96 0h2.98v2.98h-2.98zm5.95 0h2.98v2.98h-2.98zm2.98 0h2.98v2.98h-2.98zm8.93 0h2.98v2.98h-2.98zm5.95 0h2.98v2.98H89.3zm2.98 0h2.98v2.98h-2.98zm11.91 0h2.98v2.98h-2.98zm5.95 0h2.98v2.98h-2.98zm2.98 0h2.98v2.98h-2.98z"/><path d="M116.09 8.93h2.98v2.98h-2.98zm5.96 0h2.98v2.98h-2.98zM2.98 11.91h2.98v2.98H2.98zm5.95 0h2.98v2.98H8.93zm2.98 0h2.98v2.98h-2.98z"/><path d="M14.88 11.91h2.98v2.98h-2.98zm5.96 0h2.98v2.98h-2.98zm5.95 0h2.98v2.98h-2.98zm2.98 0h2.98v2.98h-2.98z"/><path d="M32.74 11.91h2.98v2.98h-2.98zm5.96 0h2.98v2.98H38.7zm5.95 0h2.98v2.98h-2.98zm2.98 0h2.98v2.98h-2.98z"/><path d="M50.6 11.91h2.98v2.98H50.6zm2.98 0h2.98v2.98h-2.98zm2.98 0h2.98v2.98h-2.98zm8.93 0h2.98v2.98h-2.98zm11.91 0h2.98v2.98H77.4zm11.9 0h2.98v2.98H89.3zm2.98 0h2.98v2.98h-2.98zm11.91 0h2.98v2.98h-2.98zm5.95 0h2.98v2.98h-2.98zm2.98 0h2.98v2.98h-2.98z"/><path d="M116.09 11.91h2.98v2.98h-2.98zm5.96 0h2.98v2.98h-2.98zM2.98 14.88h2.98v2.98H2.98zm5.95 0h2.98v2.98H8.93zm2.98 0h2.98v2.98h-2.98z"/><path d="M14.88 14.88h2.98v2.98h-2.98zm5.96 0h2.98v2.98h-2.98zm8.93 0h2.98v2.98h-2.98zm14.88 0h2.98v2.98h-2.98zm11.91 0h2.98v2.98h-2.98z"/><path d="M59.53 14.88h2.98v2.98h-2.98zm5.96 0h2.98v2.98h-2.98zm2.98 0h2.98v2.98h-2.98zm5.95 0h2.98v2.98h-2.98zm11.91 0h2.98v2.98h-2.98zm5.95 0h2.98v2.98h-2.98zm2.98 0h2.98v2.98h-2.98zm8.93 0h2.98v2.98h-2.98zm5.95 0h2.98v2.98h-2.98zm2.98 0h2.98v2.98h-2.98z"/><path d="M116.09 14.88h2.98v2.98h-2.98zm5.96 0h2.98v2.98h-2.98zM2.98 17.86h2.98v2.98H2.98zm17.86 0h2.98v2.98h-2.98zm20.83 0h2.98v2.98h-2.98zm2.98 0h2.98v2.98h-2.98zm2.98 0h2.98v2.98h-2.98zm5.95 0h2.98v2.98h-2.98zm2.98 0h2.98v2.98h-2.98z"/><path d="M59.53 17.86h2.98v2.98h-2.98zm5.96 0h2.98v2.98h-2.98zm2.98 0h2.98v2.98h-2.98zm5.95 0h2.98v2.98h-2.98zm2.98 0h2.98v2.98H77.4z"/><path d="M80.37 17.86h2.98v2.98h-2.98z"/><path d="M83.35 17.86h2.98v2.98h-2.98zm5.95 0h2.98v2.98H89.3zm5.96 0h2.98v2.98h-2.98zm8.93 0h2.98v2.98h-2.98zm17.86 0h2.98v2.98h-2.98zM2.98 20.84h2.98v2.98H2.98z"/><path d="M5.95 20.84h2.98v2.98H5.95zm2.98 0h2.98v2.98H8.93zm2.98 0h2.98v2.98h-2.98z"/><path d="M14.88 20.84h2.98v2.98h-2.98zm2.98 0h2.98v2.98h-2.98zm2.98 0h2.98v2.98h-2.98zm5.95 0h2.98v2.98h-2.98zm5.95 0h2.98v2.98h-2.98zm5.96 0h2.98v2.98H38.7zm5.95 0h2.98v2.98h-2.98zm5.95 0h2.98v2.98H50.6zm5.96 0h2.98v2.98h-2.98zm5.95 0h2.98v2.98h-2.98zm5.96 0h2.98v2.98h-2.98zm5.95 0h2.98v2.98h-2.98zm5.95 0h2.98v2.98h-2.98zm5.96 0h2.98v2.98h-2.98zm5.95 0h2.98v2.98h-2.98zm5.95 0h2.98v2.98h-2.98zm5.96 0h2.98v2.98h-2.98z"/><path d="M107.16 20.84h2.98v2.98h-2.98zm2.98 0h2.98v2.98h-2.98zm2.98 0h2.98v2.98h-2.98z"/><path d="M116.09 20.84h2.98v2.98h-2.98z"/><path d="M119.07 20.84h2.98v2.98h-2.98zm2.98 0h2.98v2.98h-2.98zm-92.28 2.97h2.98v2.98h-2.98zm5.95 0h2.98v2.98h-2.98zm5.95 0h2.98v2.98h-2.98zm2.98 0h2.98v2.98h-2.98zm2.98 0h2.98v2.98h-2.98z"/><path d="M50.6 23.81h2.98v2.98H50.6zm14.89 0h2.98v2.98h-2.98zm5.95 0h2.98v2.98h-2.98zm8.93 0h2.98v2.98h-2.98z"/><path d="M83.35 23.81h2.98v2.98h-2.98zm2.98 0h2.98v2.98h-2.98z"/><path d="M89.3 23.81h2.98v2.98H89.3zm2.98 0h2.98v2.98h-2.98zm5.95 0h2.98v2.98h-2.98zm-89.3 2.98h2.98v2.98H8.93zm5.95 0h2.98v2.98h-2.98zm2.98 0h2.98v2.98h-2.98zm2.98 0h2.98v2.98h-2.98zm5.95 0h2.98v2.98h-2.98zm5.95 0h2.98v2.98h-2.98zm2.98 0h2.98v2.98h-2.98zm2.98 0h2.98v2.98H38.7z"/><path d="M41.67 26.79h2.98v2.98h-2.98zm2.98 0h2.98v2.98h-2.98zm2.98 0h2.98v2.98h-2.98z"/><path d="M50.6 26.79h2.98v2.98H50.6zm2.98 0h2.98v2.98h-2.98zm2.98 0h2.98v2.98h-2.98z"/><path d="M59.53 26.79h2.98v2.98h-2.98zm8.94 0h2.98v2.98h-2.98zm11.9 0h2.98v2.98h-2.98zm5.96 0h2.98v2.98h-2.98z"/><path d="M89.3 26.79h2.98v2.98H89.3zm11.91 0h2.98v2.98h-2.98zm11.91 0h2.98v2.98h-2.98zm8.93 0h2.98v2.98h-2.98zM2.98 29.77h2.98v2.98H2.98z"/><path d="M5.95 29.77h2.98v2.98H5.95zm2.98 0h2.98v2.98H8.93zm2.98 0h2.98v2.98h-2.98zm11.9 0h2.98v2.98h-2.98zm14.89 0h2.98v2.98H38.7z"/><path d="M41.67 29.77h2.98v2.98h-2.98zm2.98 0h2.98v2.98h-2.98zm2.98 0h2.98v2.98h-2.98zm14.88 0h2.98v2.98h-2.98zm5.96 0h2.98v2.98h-2.98zm5.95 0h2.98v2.98h-2.98zm11.91 0h2.98v2.98h-2.98zm5.95 0h2.98v2.98h-2.98zm5.95 0h2.98v2.98h-2.98z"/><path d="M101.21 29.77h2.98v2.98h-2.98zm8.93 0h2.98v2.98h-2.98zm2.98 0h2.98v2.98h-2.98z"/><path d="M116.09 29.77h2.98v2.98h-2.98z"/><path d="M119.07 29.77h2.98v2.98h-2.98zM2.98 32.74h2.98v2.98H2.98zm5.95 0h2.98v2.98H8.93zm8.93 0h2.98v2.98h-2.98zm2.98 0h2.98v2.98h-2.98zm5.95 0h2.98v2.98h-2.98zm2.98 0h2.98v2.98h-2.98z"/><path d="M32.74 32.74h2.98v2.98h-2.98zm8.93 0h2.98v2.98h-2.98zm5.96 0h2.98v2.98h-2.98zm5.95 0h2.98v2.98h-2.98zm8.93 0h2.98v2.98h-2.98zm2.98 0h2.98v2.98h-2.98zm2.98 0h2.98v2.98h-2.98z"/><path d="M71.44 32.74h2.98v2.98h-2.98zm2.98 0h2.98v2.98h-2.98zm2.98 0h2.98v2.98H77.4zm8.93 0h2.98v2.98h-2.98z"/><path d="M89.3 32.74h2.98v2.98H89.3zm2.98 0h2.98v2.98h-2.98zm8.93 0h2.98v2.98h-2.98zm5.95 0h2.98v2.98h-2.98zm2.98 0h2.98v2.98h-2.98zm5.95 0h2.98v2.98h-2.98zm5.96 0h2.98v2.98h-2.98zM8.93 35.72h2.98v2.98H8.93zm2.98 0h2.98v2.98h-2.98zm11.9 0h2.98v2.98h-2.98zm2.98 0h2.98v2.98h-2.98zm2.98 0h2.98v2.98h-2.98z"/><path d="M32.74 35.72h2.98v2.98h-2.98zm2.98 0h2.98v2.98h-2.98zm11.91 0h2.98v2.98h-2.98zm11.9 0h2.98v2.98h-2.98zm5.96 0h2.98v2.98h-2.98zm2.98 0h2.98v2.98h-2.98zm8.93 0h2.98v2.98H77.4zm5.95 0h2.98v2.98h-2.98zm2.98 0h2.98v2.98h-2.98z"/><path d="M89.3 35.72h2.98v2.98H89.3zm2.98 0h2.98v2.98h-2.98zm5.95 0h2.98v2.98h-2.98z"/><path d="M101.21 35.72h2.98v2.98h-2.98zm2.98 0h2.98v2.98h-2.98zm5.95 0h2.98v2.98h-2.98zm11.91 0h2.98v2.98h-2.98zM11.91 38.7h2.98v2.98h-2.98zm8.93 0h2.98v2.98h-2.98z"/><path d="M23.81 38.7h2.98v2.98h-2.98zm2.98 0h2.98v2.98h-2.98zm14.88 0h2.98v2.98h-2.98zm8.93 0h2.98v2.98H50.6zm2.98 0h2.98v2.98h-2.98zm2.98 0h2.98v2.98h-2.98zm8.93 0h2.98v2.98h-2.98zm2.98 0h2.98v2.98h-2.98zm11.9 0h2.98v2.98h-2.98z"/><path d="M83.35 38.7h2.98v2.98h-2.98zm2.98 0h2.98v2.98h-2.98z"/><path d="M89.3 38.7h2.98v2.98H89.3zm5.96 0h2.98v2.98h-2.98zm5.95 0h2.98v2.98h-2.98zm11.91 0h2.98v2.98h-2.98zm5.95 0h2.98v2.98h-2.98zm2.98 0h2.98v2.98h-2.98zM5.95 41.67h2.98v2.98H5.95zm2.98 0h2.98v2.98H8.93zm2.98 0h2.98v2.98h-2.98zm5.95 0h2.98v2.98h-2.98zm5.95 0h2.98v2.98h-2.98zm20.84 0h2.98v2.98h-2.98zm2.98 0h2.98v2.98h-2.98zm5.95 0h2.98v2.98h-2.98zm11.91 0h2.98v2.98h-2.98zm2.98 0h2.98v2.98h-2.98z"/><path d="M71.44 41.67h2.98v2.98h-2.98zm2.98 0h2.98v2.98h-2.98zm5.95 0h2.98v2.98h-2.98z"/><path d="M83.35 41.67h2.98v2.98h-2.98zm2.98 0h2.98v2.98h-2.98zm5.95 0h2.98v2.98h-2.98zm2.98 0h2.98v2.98h-2.98zm5.95 0h2.98v2.98h-2.98zm11.91 0h2.98v2.98h-2.98zm5.95 0h2.98v2.98h-2.98zm2.98 0h2.98v2.98h-2.98zM20.84 44.65h2.98v2.98h-2.98zm5.95 0h2.98v2.98h-2.98zm2.98 0h2.98v2.98h-2.98z"/><path d="M32.74 44.65h2.98v2.98h-2.98zm2.98 0h2.98v2.98h-2.98zm11.91 0h2.98v2.98h-2.98zm11.9 0h2.98v2.98h-2.98zm5.96 0h2.98v2.98h-2.98zm5.95 0h2.98v2.98h-2.98zm2.98 0h2.98v2.98h-2.98zm2.98 0h2.98v2.98H77.4z"/><path d="M80.37 44.65h2.98v2.98h-2.98z"/><path d="M83.35 44.65h2.98v2.98h-2.98zm2.98 0h2.98v2.98h-2.98z"/><path d="M89.3 44.65h2.98v2.98H89.3zm14.89 0h2.98v2.98h-2.98z"/><path d="M107.16 44.65h2.98v2.98h-2.98zm5.96 0h2.98v2.98h-2.98z"/><path d="M116.09 44.65h2.98v2.98h-2.98z"/><path d="M119.07 44.65h2.98v2.98h-2.98zM5.95 47.63h2.98v2.98H5.95zm2.98 0h2.98v2.98H8.93zm2.98 0h2.98v2.98h-2.98zm17.86 0h2.98v2.98h-2.98zm5.95 0h2.98v2.98h-2.98zm2.98 0h2.98v2.98H38.7z"/><path d="M41.67 47.63h2.98v2.98h-2.98zm2.98 0h2.98v2.98h-2.98zm2.98 0h2.98v2.98h-2.98z"/><path d="M50.6 47.63h2.98v2.98H50.6zm2.98 0h2.98v2.98h-2.98zm2.98 0h2.98v2.98h-2.98zm8.93 0h2.98v2.98h-2.98zm2.98 0h2.98v2.98h-2.98zm8.93 0h2.98v2.98H77.4z"/><path d="M80.37 47.63h2.98v2.98h-2.98zm5.96 0h2.98v2.98h-2.98zm8.93 0h2.98v2.98h-2.98zm8.93 0h2.98v2.98h-2.98z"/><path d="M107.16 47.63h2.98v2.98h-2.98zM2.98 50.6h2.98v2.98H2.98zm17.86 0h2.98v2.98h-2.98z"/><path d="M23.81 50.6h2.98v2.98h-2.98zm2.98 0h2.98v2.98h-2.98zm2.98 0h2.98v2.98h-2.98zm8.93 0h2.98v2.98H38.7z"/><path d="M41.67 50.6h2.98v2.98h-2.98zm2.98 0h2.98v2.98h-2.98zm2.98 0h2.98v2.98h-2.98z"/><path d="M50.6 50.6h2.98v2.98H50.6zm2.98 0h2.98v2.98h-2.98zm11.91 0h2.98v2.98h-2.98zm5.95 0h2.98v2.98h-2.98zm2.98 0h2.98v2.98h-2.98zm8.93 0h2.98v2.98h-2.98zm2.98 0h2.98v2.98h-2.98zm5.95 0h2.98v2.98h-2.98zm5.95 0h2.98v2.98h-2.98zm5.96 0h2.98v2.98h-2.98z"/><path d="M107.16 50.6h2.98v2.98h-2.98zm5.96 0h2.98v2.98h-2.98zm8.93 0h2.98v2.98h-2.98zM2.98 53.58h2.98v2.98H2.98zm8.93 0h2.98v2.98h-2.98z"/><path d="M14.88 53.58h2.98v2.98h-2.98zm2.98 0h2.98v2.98h-2.98zm5.95 0h2.98v2.98h-2.98zm2.98 0h2.98v2.98h-2.98zm11.91 0h2.98v2.98H38.7zm8.93 0h2.98v2.98h-2.98zm5.95 0h2.98v2.98h-2.98zm8.93 0h2.98v2.98h-2.98zm2.98 0h2.98v2.98h-2.98zm2.98 0h2.98v2.98h-2.98zm11.9 0h2.98v2.98h-2.98z"/><path d="M83.35 53.58h2.98v2.98h-2.98zm2.98 0h2.98v2.98h-2.98z"/><path d="M89.3 53.58h2.98v2.98H89.3zm5.96 0h2.98v2.98h-2.98zm8.93 0h2.98v2.98h-2.98zm11.9 0h2.98v2.98h-2.98z"/><path d="M119.07 53.58h2.98v2.98h-2.98zm2.98 0h2.98v2.98h-2.98zM2.98 56.56h2.98v2.98H2.98zm17.86 0h2.98v2.98h-2.98zm5.95 0h2.98v2.98h-2.98zm14.88 0h2.98v2.98h-2.98zm2.98 0h2.98v2.98h-2.98zm2.98 0h2.98v2.98h-2.98z"/><path d="M50.6 56.56h2.98v2.98H50.6zm8.93 0h2.98v2.98h-2.98zm2.98 0h2.98v2.98h-2.98zm2.98 0h2.98v2.98h-2.98zm5.95 0h2.98v2.98h-2.98zm2.98 0h2.98v2.98h-2.98zm5.95 0h2.98v2.98h-2.98z"/><path d="M83.35 56.56h2.98v2.98h-2.98zm2.98 0h2.98v2.98h-2.98zm5.95 0h2.98v2.98h-2.98zm2.98 0h2.98v2.98h-2.98z"/><path d="M98.23 56.56h2.98v2.98h-2.98z"/><path d="M101.21 56.56h2.98v2.98h-2.98zm8.93 0h2.98v2.98h-2.98zm8.93 0h2.98v2.98h-2.98zm2.98 0h2.98v2.98h-2.98zM8.93 59.53h2.98v2.98H8.93zm2.98 0h2.98v2.98h-2.98zm11.9 0h2.98v2.98h-2.98zm8.93 0h2.98v2.98h-2.98zm2.98 0h2.98v2.98h-2.98zm8.93 0h2.98v2.98h-2.98zm8.93 0h2.98v2.98h-2.98zm2.98 0h2.98v2.98h-2.98zm8.93 0h2.98v2.98h-2.98zm14.88 0h2.98v2.98h-2.98zm5.96 0h2.98v2.98h-2.98z"/><path d="M89.3 59.53h2.98v2.98H89.3zm2.98 0h2.98v2.98h-2.98zm5.95 0h2.98v2.98h-2.98zm5.96 0h2.98v2.98h-2.98z"/><path d="M107.16 59.53h2.98v2.98h-2.98zm11.91 0h2.98v2.98h-2.98zM2.98 62.51h2.98v2.98H2.98zm5.95 0h2.98v2.98H8.93zm11.91 0h2.98v2.98h-2.98zm5.95 0h2.98v2.98h-2.98zm2.98 0h2.98v2.98h-2.98zm8.93 0h2.98v2.98H38.7zm14.88 0h2.98v2.98h-2.98zm2.98 0h2.98v2.98h-2.98zm11.91 0h2.98v2.98h-2.98zm5.95 0h2.98v2.98h-2.98zm2.98 0h2.98v2.98H77.4z"/><path d="M80.37 62.51h2.98v2.98h-2.98z"/><path d="M83.35 62.51h2.98v2.98h-2.98zm8.93 0h2.98v2.98h-2.98zm2.98 0h2.98v2.98h-2.98z"/><path d="M98.23 62.51h2.98v2.98h-2.98z"/><path d="M101.21 62.51h2.98v2.98h-2.98zm2.98 0h2.98v2.98h-2.98z"/><path d="M107.16 62.51h2.98v2.98h-2.98zm2.98 0h2.98v2.98h-2.98zm11.91 0h2.98v2.98h-2.98zM2.98 65.49h2.98v2.98H2.98z"/><path d="M5.95 65.49h2.98v2.98H5.95zm8.93 0h2.98v2.98h-2.98zm8.93 0h2.98v2.98h-2.98zm5.96 0h2.98v2.98h-2.98zm5.95 0h2.98v2.98h-2.98zm2.98 0h2.98v2.98H38.7z"/><path d="M41.67 65.49h2.98v2.98h-2.98zm2.98 0h2.98v2.98h-2.98zm8.93 0h2.98v2.98h-2.98zm11.91 0h2.98v2.98h-2.98zm20.84 0h2.98v2.98h-2.98z"/><path d="M89.3 65.49h2.98v2.98H89.3zm2.98 0h2.98v2.98h-2.98zm5.95 0h2.98v2.98h-2.98z"/><path d="M101.21 65.49h2.98v2.98h-2.98zm2.98 0h2.98v2.98h-2.98z"/><path d="M107.16 65.49h2.98v2.98h-2.98zm5.96 0h2.98v2.98h-2.98zm5.95 0h2.98v2.98h-2.98zm2.98 0h2.98v2.98h-2.98zM8.93 68.47h2.98v2.98H8.93zm2.98 0h2.98v2.98h-2.98z"/><path d="M14.88 68.47h2.98v2.98h-2.98zm2.98 0h2.98v2.98h-2.98zm2.98 0h2.98v2.98h-2.98zm14.88 0h2.98v2.98h-2.98zm5.95 0h2.98v2.98h-2.98zm2.98 0h2.98v2.98h-2.98zm5.95 0h2.98v2.98H50.6zm2.98 0h2.98v2.98h-2.98zm5.95 0h2.98v2.98h-2.98zm2.98 0h2.98v2.98h-2.98zm5.96 0h2.98v2.98h-2.98z"/><path d="M71.44 68.47h2.98v2.98h-2.98zm2.98 0h2.98v2.98h-2.98zm2.98 0h2.98v2.98H77.4zm8.93 0h2.98v2.98h-2.98z"/><path d="M89.3 68.47h2.98v2.98H89.3zm2.98 0h2.98v2.98h-2.98zm8.93 0h2.98v2.98h-2.98zm5.95 0h2.98v2.98h-2.98zm2.98 0h2.98v2.98h-2.98zm5.95 0h2.98v2.98h-2.98z"/><path d="M119.07 68.47h2.98v2.98h-2.98zm2.98 0h2.98v2.98h-2.98zM2.98 71.44h2.98v2.98H2.98zm14.88 0h2.98v2.98h-2.98zm5.95 0h2.98v2.98h-2.98zm5.96 0h2.98v2.98h-2.98z"/><path d="M32.74 71.44h2.98v2.98h-2.98zm5.96 0h2.98v2.98H38.7z"/><path d="M41.67 71.44h2.98v2.98h-2.98zm2.98 0h2.98v2.98h-2.98zm2.98 0h2.98v2.98h-2.98z"/><path d="M50.6 71.44h2.98v2.98H50.6zm2.98 0h2.98v2.98h-2.98zm2.98 0h2.98v2.98h-2.98z"/><path d="M59.53 71.44h2.98v2.98h-2.98zm2.98 0h2.98v2.98h-2.98zm8.93 0h2.98v2.98h-2.98zm2.98 0h2.98v2.98h-2.98zm2.98 0h2.98v2.98H77.4z"/><path d="M80.37 71.44h2.98v2.98h-2.98z"/><path d="M83.35 71.44h2.98v2.98h-2.98zm2.98 0h2.98v2.98h-2.98z"/><path d="M89.3 71.44h2.98v2.98H89.3zm8.93 0h2.98v2.98h-2.98zm8.93 0h2.98v2.98h-2.98zm5.96 0h2.98v2.98h-2.98zM8.93 74.42h2.98v2.98H8.93zm11.91 0h2.98v2.98h-2.98z"/><path d="M23.81 74.42h2.98v2.98h-2.98zm11.91 0h2.98v2.98h-2.98zm2.98 0h2.98v2.98H38.7z"/><path d="M41.67 74.42h2.98v2.98h-2.98zm2.98 0h2.98v2.98h-2.98zm2.98 0h2.98v2.98h-2.98zm8.93 0h2.98v2.98h-2.98z"/><path d="M59.53 74.42h2.98v2.98h-2.98zm2.98 0h2.98v2.98h-2.98zm2.98 0h2.98v2.98h-2.98zm11.91 0h2.98v2.98H77.4z"/><path d="M80.37 74.42h2.98v2.98h-2.98zm5.96 0h2.98v2.98h-2.98z"/><path d="M89.3 74.42h2.98v2.98H89.3zm2.98 0h2.98v2.98h-2.98zm2.98 0h2.98v2.98h-2.98z"/><path d="M98.23 74.42h2.98v2.98h-2.98zm17.86 0h2.98v2.98h-2.98zM2.98 77.4h2.98v2.98H2.98z"/><path d="M5.95 77.4h2.98v2.98H5.95zm2.98 0h2.98v2.98H8.93zm20.84 0h2.98v2.98h-2.98z"/><path d="M32.74 77.4h2.98v2.98h-2.98zm2.98 0h2.98v2.98h-2.98zm5.95 0h2.98v2.98h-2.98zm5.96 0h2.98v2.98h-2.98z"/><path d="M50.6 77.4h2.98v2.98H50.6zm2.98 0h2.98v2.98h-2.98zm5.95 0h2.98v2.98h-2.98zm26.8 0h2.98v2.98h-2.98zm14.88 0h2.98v2.98h-2.98zm2.98 0h2.98v2.98h-2.98zm5.95 0h2.98v2.98h-2.98zm8.93 0h2.98v2.98h-2.98zM2.98 80.37h2.98v2.98H2.98z"/><path d="M5.95 80.37h2.98v2.98H5.95zm11.91 0h2.98v2.98h-2.98zm2.98 0h2.98v2.98h-2.98zm8.93 0h2.98v2.98h-2.98zm14.88 0h2.98v2.98h-2.98zm2.98 0h2.98v2.98h-2.98z"/><path d="M50.6 80.37h2.98v2.98H50.6zm2.98 0h2.98v2.98h-2.98zm5.95 0h2.98v2.98h-2.98zm5.96 0h2.98v2.98h-2.98zm2.98 0h2.98v2.98h-2.98z"/><path d="M71.44 80.37h2.98v2.98h-2.98zm2.98 0h2.98v2.98h-2.98zm17.86 0h2.98v2.98h-2.98zm11.91 0h2.98v2.98h-2.98zm11.9 0h2.98v2.98h-2.98z"/><path d="M119.07 80.37h2.98v2.98h-2.98zm2.98 0h2.98v2.98h-2.98zM2.98 83.35h2.98v2.98H2.98zm5.95 0h2.98v2.98H8.93zm2.98 0h2.98v2.98h-2.98zm5.95 0h2.98v2.98h-2.98zm5.95 0h2.98v2.98h-2.98zm2.98 0h2.98v2.98h-2.98zm8.93 0h2.98v2.98h-2.98zm8.93 0h2.98v2.98h-2.98zm5.95 0h2.98v2.98H50.6zm8.93 0h2.98v2.98h-2.98zm5.96 0h2.98v2.98h-2.98zm2.98 0h2.98v2.98h-2.98z"/><path d="M71.44 83.35h2.98v2.98h-2.98zm2.98 0h2.98v2.98h-2.98zm2.98 0h2.98v2.98H77.4zm5.95 0h2.98v2.98h-2.98zm5.95 0h2.98v2.98H89.3zm8.93 0h2.98v2.98h-2.98zm20.84 0h2.98v2.98h-2.98zm2.98 0h2.98v2.98h-2.98zM11.91 86.33h2.98v2.98h-2.98zm8.93 0h2.98v2.98h-2.98z"/><path d="M23.81 86.33h2.98v2.98h-2.98zm2.98 0h2.98v2.98h-2.98zm8.93 0h2.98v2.98h-2.98zm8.93 0h2.98v2.98h-2.98zm2.98 0h2.98v2.98h-2.98z"/><path d="M50.6 86.33h2.98v2.98H50.6zm2.98 0h2.98v2.98h-2.98zm2.98 0h2.98v2.98h-2.98z"/><path d="M59.53 86.33h2.98v2.98h-2.98zm11.91 0h2.98v2.98h-2.98zm2.98 0h2.98v2.98h-2.98zm5.95 0h2.98v2.98h-2.98zm11.91 0h2.98v2.98h-2.98zm2.98 0h2.98v2.98h-2.98z"/><path d="M98.23 86.33h2.98v2.98h-2.98zm5.96 0h2.98v2.98h-2.98zm8.93 0h2.98v2.98h-2.98zm5.95 0h2.98v2.98h-2.98zm2.98 0h2.98v2.98h-2.98zM5.95 89.3h2.98v2.98H5.95zm2.98 0h2.98v2.98H8.93zm14.88 0h2.98v2.98h-2.98zm8.93 0h2.98v2.98h-2.98zm2.98 0h2.98v2.98h-2.98zm2.98 0h2.98v2.98H38.7zm14.88 0h2.98v2.98h-2.98zm2.98 0h2.98v2.98h-2.98z"/><path d="M59.53 89.3h2.98v2.98h-2.98zm5.96 0h2.98v2.98h-2.98zm2.98 0h2.98v2.98h-2.98zm8.93 0h2.98v2.98H77.4z"/><path d="M80.37 89.3h2.98v2.98h-2.98z"/><path d="M83.35 89.3h2.98v2.98h-2.98zm8.93 0h2.98v2.98h-2.98zm2.98 0h2.98v2.98h-2.98z"/><path d="M98.23 89.3h2.98v2.98h-2.98zm14.89 0h2.98v2.98h-2.98z"/><path d="M116.09 89.3h2.98v2.98h-2.98z"/><path d="M119.07 89.3h2.98v2.98h-2.98zM2.98 92.28h2.98v2.98H2.98zm11.9 0h2.98v2.98h-2.98zm5.96 0h2.98v2.98h-2.98z"/><path d="M23.81 92.28h2.98v2.98h-2.98zm5.96 0h2.98v2.98h-2.98z"/><path d="M32.74 92.28h2.98v2.98h-2.98zm8.93 0h2.98v2.98h-2.98zm2.98 0h2.98v2.98h-2.98zm20.84 0h2.98v2.98h-2.98zm2.98 0h2.98v2.98h-2.98z"/><path d="M71.44 92.28h2.98v2.98h-2.98zm2.98 0h2.98v2.98h-2.98zm5.95 0h2.98v2.98h-2.98zm14.89 0h2.98v2.98h-2.98z"/><path d="M98.23 92.28h2.98v2.98h-2.98zm14.89 0h2.98v2.98h-2.98z"/><path d="M116.09 92.28h2.98v2.98h-2.98zM5.95 95.26h2.98v2.98H5.95zm2.98 0h2.98v2.98H8.93zm2.98 0h2.98v2.98h-2.98z"/><path d="M14.88 95.26h2.98v2.98h-2.98zm20.84 0h2.98v2.98h-2.98zm2.98 0h2.98v2.98H38.7z"/><path d="M41.67 95.26h2.98v2.98h-2.98zm2.98 0h2.98v2.98h-2.98zm2.98 0h2.98v2.98h-2.98z"/><path d="M50.6 95.26h2.98v2.98H50.6zm2.98 0h2.98v2.98h-2.98zm5.95 0h2.98v2.98h-2.98zm5.96 0h2.98v2.98h-2.98zm2.98 0h2.98v2.98h-2.98zm5.95 0h2.98v2.98h-2.98zm8.93 0h2.98v2.98h-2.98zm8.93 0h2.98v2.98h-2.98zm5.95 0h2.98v2.98h-2.98z"/><path d="M101.21 95.26h2.98v2.98h-2.98zm2.98 0h2.98v2.98h-2.98zm5.95 0h2.98v2.98h-2.98zm2.98 0h2.98v2.98h-2.98zm5.95 0h2.98v2.98h-2.98zm2.98 0h2.98v2.98h-2.98zM2.98 98.23h2.98v2.98H2.98zm8.93 0h2.98v2.98h-2.98z"/><path d="M14.88 98.23h2.98v2.98h-2.98zm5.96 0h2.98v2.98h-2.98z"/><path d="M23.81 98.23h2.98v2.98h-2.98zm5.96 0h2.98v2.98h-2.98z"/><path d="M32.74 98.23h2.98v2.98h-2.98zm2.98 0h2.98v2.98h-2.98zm5.95 0h2.98v2.98h-2.98zm2.98 0h2.98v2.98h-2.98zm11.91 0h2.98v2.98h-2.98z"/><path d="M59.53 98.23h2.98v2.98h-2.98zm5.96 0h2.98v2.98h-2.98zm5.95 0h2.98v2.98h-2.98zm8.93 0h2.98v2.98h-2.98zm5.96 0h2.98v2.98h-2.98z"/><path d="M89.3 98.23h2.98v2.98H89.3zm2.98 0h2.98v2.98h-2.98zm2.98 0h2.98v2.98h-2.98z"/><path d="M98.23 98.23h2.98v2.98h-2.98z"/><path d="M101.21 98.23h2.98v2.98h-2.98zm2.98 0h2.98v2.98h-2.98z"/><path d="M107.16 98.23h2.98v2.98h-2.98zm2.98 0h2.98v2.98h-2.98zm-83.35 2.98h2.98v2.98h-2.98zm2.98 0h2.98v2.98h-2.98z"/><path d="M32.74 101.21h2.98v2.98h-2.98zm8.93 0h2.98v2.98h-2.98zm14.89 0h2.98v2.98h-2.98zm5.95 0h2.98v2.98h-2.98zm5.96 0h2.98v2.98h-2.98z"/><path d="M71.44 101.21h2.98v2.98h-2.98zm5.96 0h2.98v2.98H77.4z"/><path d="M80.37 101.21h2.98v2.98h-2.98z"/><path d="M83.35 101.21h2.98v2.98h-2.98zm11.91 0h2.98v2.98h-2.98z"/><path d="M98.23 101.21h2.98v2.98h-2.98zm11.91 0h2.98v2.98h-2.98zm5.95 0h2.98v2.98h-2.98zm5.96 0h2.98v2.98h-2.98zM2.98 104.19h2.98v2.98H2.98z"/><path d="M5.95 104.19h2.98v2.98H5.95zm2.98 0h2.98v2.98H8.93zm2.98 0h2.98v2.98h-2.98z"/><path d="M14.88 104.19h2.98v2.98h-2.98zm2.98 0h2.98v2.98h-2.98zm2.98 0h2.98v2.98h-2.98zm8.93 0h2.98v2.98h-2.98zm5.95 0h2.98v2.98h-2.98zm2.98 0h2.98v2.98H38.7zm8.93 0h2.98v2.98h-2.98z"/><path d="M50.6 104.19h2.98v2.98H50.6zm2.98 0h2.98v2.98h-2.98zm2.98 0h2.98v2.98h-2.98zm20.84 0h2.98v2.98H77.4z"/><path d="M80.37 104.19h2.98v2.98h-2.98z"/><path d="M83.35 104.19h2.98v2.98h-2.98zm2.98 0h2.98v2.98h-2.98z"/><path d="M89.3 104.19h2.98v2.98H89.3zm8.93 0h2.98v2.98h-2.98zm5.96 0h2.98v2.98h-2.98zm5.95 0h2.98v2.98h-2.98zm8.93 0h2.98v2.98h-2.98zm2.98 0h2.98v2.98h-2.98zM2.98 107.16h2.98v2.98H2.98zm17.86 0h2.98v2.98h-2.98zm5.95 0h2.98v2.98h-2.98zm5.95 0h2.98v2.98h-2.98zm5.96 0h2.98v2.98H38.7zm5.95 0h2.98v2.98h-2.98zm2.98 0h2.98v2.98h-2.98z"/><path d="M50.6 107.16h2.98v2.98H50.6zm5.96 0h2.98v2.98h-2.98zm5.95 0h2.98v2.98h-2.98zm2.98 0h2.98v2.98h-2.98zm11.91 0h2.98v2.98H77.4zm5.95 0h2.98v2.98h-2.98zm2.98 0h2.98v2.98h-2.98zm11.9 0h2.98v2.98h-2.98zm11.91 0h2.98v2.98h-2.98zM2.98 110.14h2.98v2.98H2.98zm5.95 0h2.98v2.98H8.93zm2.98 0h2.98v2.98h-2.98z"/><path d="M14.88 110.14h2.98v2.98h-2.98zm5.96 0h2.98v2.98h-2.98zm5.95 0h2.98v2.98h-2.98zm2.98 0h2.98v2.98h-2.98z"/><path d="M32.74 110.14h2.98v2.98h-2.98zm2.98 0h2.98v2.98h-2.98zm8.93 0h2.98v2.98h-2.98zm11.91 0h2.98v2.98h-2.98z"/><path d="M59.53 110.14h2.98v2.98h-2.98zm2.98 0h2.98v2.98h-2.98zm5.96 0h2.98v2.98h-2.98z"/><path d="M71.44 110.14h2.98v2.98h-2.98zm2.98 0h2.98v2.98h-2.98zm2.98 0h2.98v2.98H77.4zm5.95 0h2.98v2.98h-2.98zm11.91 0h2.98v2.98h-2.98z"/><path d="M98.23 110.14h2.98v2.98h-2.98z"/><path d="M101.21 110.14h2.98v2.98h-2.98zm2.98 0h2.98v2.98h-2.98z"/><path d="M107.16 110.14h2.98v2.98h-2.98zm2.98 0h2.98v2.98h-2.98zM2.98 113.12h2.98v2.98H2.98zm5.95 0h2.98v2.98H8.93zm2.98 0h2.98v2.98h-2.98z"/><path d="M14.88 113.12h2.98v2.98h-2.98zm5.96 0h2.98v2.98h-2.98zm11.9 0h2.98v2.98h-2.98zm2.98 0h2.98v2.98h-2.98zm5.95 0h2.98v2.98h-2.98zm2.98 0h2.98v2.98h-2.98zm2.98 0h2.98v2.98h-2.98zm11.9 0h2.98v2.98h-2.98zm8.94 0h2.98v2.98h-2.98zm5.95 0h2.98v2.98h-2.98zm5.95 0h2.98v2.98h-2.98z"/><path d="M83.35 113.12h2.98v2.98h-2.98zm11.91 0h2.98v2.98h-2.98z"/><path d="M98.23 113.12h2.98v2.98h-2.98z"/><path d="M101.21 113.12h2.98v2.98h-2.98zm8.93 0h2.98v2.98h-2.98zm5.95 0h2.98v2.98h-2.98zM2.98 116.09h2.98v2.98H2.98zm5.95 0h2.98v2.98H8.93zm2.98 0h2.98v2.98h-2.98z"/><path d="M14.88 116.09h2.98v2.98h-2.98zm5.96 0h2.98v2.98h-2.98zm5.95 0h2.98v2.98h-2.98zm2.98 0h2.98v2.98h-2.98z"/><path d="M32.74 116.09h2.98v2.98h-2.98zm2.98 0h2.98v2.98h-2.98zm2.98 0h2.98v2.98H38.7zm14.88 0h2.98v2.98h-2.98zm8.93 0h2.98v2.98h-2.98zm2.98 0h2.98v2.98h-2.98zm2.98 0h2.98v2.98h-2.98zm5.95 0h2.98v2.98h-2.98zm5.95 0h2.98v2.98h-2.98zm5.96 0h2.98v2.98h-2.98z"/><path d="M89.3 116.09h2.98v2.98H89.3zm5.96 0h2.98v2.98h-2.98zm11.9 0h2.98v2.98h-2.98zm2.98 0h2.98v2.98h-2.98zm11.91 0h2.98v2.98h-2.98zM2.98 119.07h2.98v2.98H2.98zm17.86 0h2.98v2.98h-2.98zm11.9 0h2.98v2.98h-2.98zm5.96 0h2.98v2.98H38.7zm5.95 0h2.98v2.98h-2.98zm5.95 0h2.98v2.98H50.6zm5.96 0h2.98v2.98h-2.98z"/><path d="M59.53 119.07h2.98v2.98h-2.98zm2.98 0h2.98v2.98h-2.98zm2.98 0h2.98v2.98h-2.98zm8.93 0h2.98v2.98h-2.98zm5.95 0h2.98v2.98h-2.98zm2.98 0h2.98v2.98h-2.98zm5.95 0h2.98v2.98H89.3zm5.96 0h2.98v2.98h-2.98z"/><path d="M98.23 119.07h2.98v2.98h-2.98zm5.96 0h2.98v2.98h-2.98z"/><path d="M107.16 119.07h2.98v2.98h-2.98zm8.93 0h2.98v2.98h-2.98z"/><path d="M119.07 119.07h2.98v2.98h-2.98zM2.98 122.05h2.98v2.98H2.98z"/><path d="M5.95 122.05h2.98v2.98H5.95zm2.98 0h2.98v2.98H8.93zm2.98 0h2.98v2.98h-2.98z"/><path d="M14.88 122.05h2.98v2.98h-2.98zm2.98 0h2.98v2.98h-2.98zm2.98 0h2.98v2.98h-2.98zm8.93 0h2.98v2.98h-2.98zm5.95 0h2.98v2.98h-2.98zm2.98 0h2.98v2.98H38.7z"/><path d="M41.67 122.05h2.98v2.98h-2.98zm2.98 0h2.98v2.98h-2.98zm5.95 0h2.98v2.98H50.6zm2.98 0h2.98v2.98h-2.98zm2.98 0h2.98v2.98h-2.98zm14.88 0h2.98v2.98h-2.98zm5.96 0h2.98v2.98H77.4zm8.93 0h2.98v2.98h-2.98z"/><path d="M89.3 122.05h2.98v2.98H89.3zm8.93 0h2.98v2.98h-2.98zm2.98 0h2.98v2.98h-2.98zm2.98 0h2.98v2.98h-2.98z"/><path d="M107.16 122.05h2.98v2.98h-2.98zm2.98 0h2.98v2.98h-2.98zm5.95 0h2.98v2.98h-2.98z"/><path d="M119.07 122.05h2.98v2.98h-2.98zm2.98 0h2.98v2.98h-2.98z"/></svg>