<svg xmlns="http://www.w3.org/2000/svg" width="341.333" height="341.333" version="1.0" viewBox="0 0 256 256"><path d="M106 19.1c-16.1 2.8-21.8 4.3-26.9 6.9-7.1 3.7-14.4 9.5-18.7 15-5.7 7.1-3.8 6.7 3.1-.8 7-7.5 13.5-12.2 20.3-14.6 4.8-1.7 32.1-6.1 32.9-5.3.4.5-1.1 15.8-2.3 21.7l-.5 2.5-16.2.2c-9.9.1-21.5 1-30 2.2-7.6 1.1-14.4 1.8-15.1 1.5-2.3-.9-16.6 25.8-18.1 33.8-.6 2.9-.1 4.1 2.8 8 1.9 2.5 3.2 5 2.7 5.4-1.3 1.4-5 14.3-5 17.4 0 1.9.9 3.5 2.6 4.7l2.7 2-5.2 8.5c-4.9 8.1-13.1 24.7-13.1 26.4 0 .5 3.7-2.7 8.1-7.1l8.1-8-.6 5c-.3 2.7-.9 8.8-1.3 13.5-.8 12-5.6 21.2-17.7 33.8-5.7 6-5.9 6.3-3.1 5.7 3.1-.7 20.9-6.2 23.3-7.2.7-.3-1.4 4.9-4.7 11.6-7.4 14.6-7.6 16-2.2 12.9 2.2-1.2 4.2-2 4.5-1.7.3.3.2 3.5-.2 7.2-.5 4.3-.5 6.7.1 6.7s3.5-1.8 6.4-4.1c3-2.2 5.6-3.9 5.7-3.7.2.1.8 1.3 1.5 2.5.6 1.3 1.7 2 2.5 1.7.8-.3 2.3.7 3.4 2.4l2.1 2.9-4.5 4.4c-5.8 5.6-8.2 9.8-6.2 11 .9.6 1.4.3 1.7-.9.7-3.2 6.1-10 9.7-12.2l3.5-2.3-5.3-5.1c-5.7-5.4-10.8-14.2-10.8-18.7 0-2.4.6-2.8 7.3-4.7 18.8-5.4 17.5-5.2 20-3.2 1.2 1 1.8 2.2 1.4 2.6-.5.5-4.3 1-8.5 1.2-9.8.4-10.8.7-9.2 2.7 1.1 1.3 4.9 1.6 25.7 1.4 16.1 0 24.3-.4 24.3-1.1 0-1.7 41.5-.3 64.9 2.1 11.2 1.2 20.6 1.9 20.9 1.6 1.2-1.1-1.1-1.9-6.8-2.3l-5.9-.4 2.5-3.4 2.6-3.3 8.6 3.1c10.5 3.7 21.2 8.6 21.2 9.8 0 .8-9 9.2-17.5 16.3l-2.9 2.4 4.4 2.3c2.4 1.2 6.8 4.5 9.8 7.4 5 4.6 5.4 4.8 3.6 1.8-2-3.6-5.9-6.9-11.2-9.6l-3.2-1.7 3.2-2.7c6.4-5.5 8-6.2 14.3-6.2 3.3 0 7.5.4 9.3.9 3.9 1.2 4 .6.7-5.9-3.1-6.2-3.3-8.4-.4-7.5 1.9.6 2 .5.9-1.7-.7-1.2-2.7-4.4-4.5-6.9l-3.3-4.6 6.7-.7c7-.6 16.9-3.1 18.6-4.7.6-.6-2.4-4.4-8.2-10.2-8.7-8.9-13.2-14.6-16.7-21.5-1.2-2.4-1.8-7-2.2-18.6-.5-15-.5-15.4 1.6-16.1 5.8-1.8 6.4-10.5 1.4-21.5-2.5-5.6-2.6-6.1-1-8.4 3.4-5.2.5-25.9-4.7-33.3-14.3-20.4-19-25.3-30.7-31.6-8.5-4.6-15-6.4-29-8.2-15.1-1.8-41.1-2.6-48-1.4zm65 6.5c13 4 27.8 15.5 35.2 27.3l2 3-6.5-2.9c-11.4-5.2-20.1-7.1-34.5-7.7l-13.4-.6.6-3c.3-1.6.6-6.7.6-11.2v-8.3l4.3.5c2.3.3 7.6 1.6 11.7 2.9zm-39.9 18.2c-.5.9-1.9 2.6-3.2 3.7-2.6 2.3-1.7.2 1.4-3.3 2.5-2.7 3.1-2.8 1.8-.4zm-17 3.9c1.6 1 2.9 2.1 2.9 2.5 0 .4 6.1.8 13.6.8 13.5 0 13.6 0 15.7-2.6l2.1-2.7 14.5.6c9.5.4 17.4 1.3 22.6 2.6 10.4 2.6 24.6 8.5 26.6 11 2.5 3.1 5.9 16.9 5.9 24 0 4.1-.6 7-1.7 8.7-1.6 2.5-1.9 2.6-9.2 1.9-11.1-1-20.7-3-28.2-5.8-3.6-1.4-10.1-3.2-14.4-4.1-9.1-1.9-13-4-18.3-10.2l-4-4.4h-8c-4.4 0-9.2-.4-10.7-1-2.1-.8-3.5-.5-7.3 1.4-2.6 1.3-8.3 3.6-12.6 5-4.3 1.4-12.2 5-17.6 8-15.2 8.7-24.1 11.9-33.5 12.4l-8.1.4-4.2-4.6c-3.1-3.3-4.2-5.4-4.2-7.7 0-3.6 4.5-14.1 10.8-25.5l4.5-8 16.6-1.8c9.1-1 17.3-1.9 18.1-2.1.8-.1 6.8-.3 13.3-.4 9.6-.1 12.5.2 14.8 1.6zM144 49c0 1.3-1.1 1.3-3 0-1.2-.8-1.1-1 .8-1 1.2 0 2.2.4 2.2 1zm-36 31.5V85h-7.7c-4.3 0-9.6.2-11.8.5-3.5.5-2.7-.1 6-4.5 12.7-6.3 13.5-6.3 13.5-.5zm26.4-3c1.9 1.4 1.9 1.5.1 3.5-2.2 2.4-4.4 2.5-7.1.5-1.9-1.5-1.9-1.5.5-3.5 2.7-2.4 3.9-2.4 6.5-.5zm-10 2.1c.9 3.4.4 3.8-5.2 3.8-4.2.1-4.7-.1-4.4-1.9.6-3.2 2.2-4.5 5.7-4.5 2.7 0 3.4.5 3.9 2.6zm18.4-2c1.3.4 2.2 1.4 2.2 2.5 0 1.5-.7 1.9-3.9 1.9-3.5 0-3.8-.2-3.3-2.5.5-2.6 1.2-2.9 5-1.9zM155 84c0 .5-.4 1-1 1-.5 0-1-.5-1-1 0-.6.5-1 1-1 .6 0 1 .4 1 1zm-48 4c0 .5-.7 1-1.6 1-.8 0-1.2-.5-.9-1 .3-.6 1-1 1.6-1 .5 0 .9.4.9 1zm15.5 6c-1 1.1-2.3 2-2.8 2-.6 0-.2-.9.8-2s2.3-2 2.8-2c.6 0 .2.9-.8 2zm-41.9 5.5c-2.6 3.4-4.5 4.8-3 2.2 2.1-3.6 4.7-6.8 5.1-6.3.3.3-.6 2.1-2.1 4.1zm15-1.7c-1.8 1.6-1.8 1.6-.6-.6.6-1.3 1.4-2.1 1.8-1.8.3.4-.2 1.4-1.2 2.4zm84.9.8c13.9 2 26.2 5.2 32.6 8.3 4.3 2.1 5.6 3.3 6.3 5.8 1.2 4.3.1 8.3-2.3 8.3-2.5 0-3.5-5.7-1.2-7 2.3-1.3.7-2.4-7.9-5.4-29.2-10.5-81.5-9.9-143.9 1.6-15.8 2.9-17.9 3.5-20.4 6l-2.9 2.8-1.9-2.2c-2.4-3-2.4-3.3.5-4.6 6.4-2.9 67.8-12.9 93.1-15.2 12.5-1.1 34.9-.4 48 1.6zM57 101c-5.3 6.7-7 6.6-2.2-.1 1.5-2.1 3.3-3.9 4-3.9.8 0 .1 1.6-1.8 4zm110.8 2.6 6 .7 4.5 9.6c4.3 9.3 6.2 14.1 5.5 14.1-.2 0-3.7-.7-7.8-1.6-11.7-2.5-38.7-1.7-38.1 1.1.1.6 4.6.9 12 .6l11.8-.3.6 7.8c.4 4.3 1.1 8.2 1.6 8.7 1.8 1.8 3.3-3.5 2.9-9.9l-.4-6.4 3.1.5c1.6.3 5.9.9 9.5 1.3l6.5.7 3.8 9 3.9 8.9-1.2 10.1c-2.5 21.9-7.5 39.1-12.7 43.8-1.9 1.6-2.6 1.6-14.9.1-9.6-1.3-21.6-1.7-46.9-1.8l-34-.1-5.2-2.9c-2.9-1.6-6-3.7-6.9-4.7-2.6-2.9-5.5-12.1-4.2-13.6.7-.9.7-1.3 0-1.3-1.5 0-2.6-4.6-5.6-22l-2.4-14.5 2.9-5.2c2.7-4.8 3.3-5.2 8.2-6.3 2.9-.6 9.1-1.4 14-1.7l8.7-.6v6.6c0 6.5 1.3 9.3 3.1 6.6.5-.8.9-4 .9-7.2 0-5.9.3-6.3 4.8-5.1 1.9.6 2.2 1.3 2.2 6.3 0 10.9.8 11 5.5.7 2.3-5.2 5.3-11.1 6.6-13.2l2.3-3.8 1.3 7.6c2.3 14.1 10.7 32.8 17 37.9 1.5 1.3 1.6 1 1-3.1-.4-2.5-1-16.3-1.4-30.7l-.6-26.1 2.4-.5c3.8-.7 23-.8 29.7-.1zM128 113.9c0 14.3 1.6 24.6 4.9 31.6 1.6 3.3 3.1 8.4 3.4 11.4.6 5.2.6 5.3-1.2 3.7-5.8-5.3-15.1-31.8-15.1-43.1 0-1.4-.4-2.5-.8-2.5s-3.6 5.5-6.9 12.2l-6.2 12.3V133c-.1-6.6 2.9-22.3 4.9-25.9 1-2 1.4-2 14.3-2.9l2.7-.2v9.9zm7 10.6c0 11.3-.2 20.5-.5 20.5-2.5 0-4.8-17.2-4-30.3.6-9.6.9-10.7 2.6-10.7 1.8 0 1.9 1.1 1.9 20.5zm57.6-17.9c4.2.8 10.4 2.4 13.9 3.5l6.3 1.9.9 6.8c.4 3.7.8 16.4.8 28.2 0 17.3-.4 23.1-1.9 29.7-1 4.6-2.2 8.3-2.6 8.3-.4 0-1-3.8-1.3-8.3-1.2-16.6-5.1-47.7-5.9-46.4-.4.6-.8 8.6-.8 17.6 0 9.1-.4 16.1-.8 15.5-1.8-2-10.4-24.3-19.2-50.2l-2.9-8.2h3c1.6 0 6.4.7 10.5 1.6zm-84.6 5.6c-1 3.6-2.3 6.2-3 6-1.6-.4-13-9.6-12.4-10.1.6-.7 8.3-1.8 13-2l4.1-.1-1.7 6.2zm-10.1 2.3c6.6 5.6 7.7 7 7.3 9-.4 2.1-.8 2.4-3.1 1.7-3.4-.9-26.6-.9-30.9 0l-3.4.8 2.3-3.8c6.6-10.9 7.3-11.7 12.4-12.9 2.8-.6 5.6-1.2 6.3-1.2.7-.1 4.8 2.8 9.1 6.4zm-27.6 2.7c-1.5 2.4-9.1 16.8-16.9 32.1-11.3 22.5-14.2 27.4-14.7 25.5-1-3.7-.7-19.5.6-29.5 1.4-10.5 1.8-10.4-7-1.9-2.9 2.8-5.3 4.7-5.3 4.3 0-2.9 16.3-30.5 19.1-32.2 1.8-1.2 26.3-4.2 26.7-3.4.2.4-.9 2.7-2.5 5.1zm136 48.8c.2 6.4-.1 8-2.2 11.4-2.6 4.2-7.5 6.8-11.1 5.9-1.9-.5-2.2-1.1-1.7-4.2 2.2-14.8 3.9-24.6 4.1-24.8.2-.2 1.6 2.7 3.1 6.4 1.5 3.8 3.2 7.2 3.7 7.8.4.5.9-5.4.9-13l.1-14 1.4 8.5c.8 4.7 1.5 11.9 1.7 16zM59.4 152.7c.4 3.8 1.5 11 2.5 16l1.8 9.3h-2.8c-1.5 0-3.9-.5-5.3-1.2-3.1-1.3-6.6-8.2-6.6-12.6 0-3.6 7.6-19.6 8.9-18.8.5.3 1.1 3.6 1.5 7.3zm161.9 13.2c2.5 3.7 8.2 10.4 12.6 14.7 4.4 4.3 7.7 8.2 7.2 8.7-1.1 1.1-15.6 3.6-21.4 3.7h-4.8l4.1 5.9c4.5 6.7 4.6 7.1 2.5 7.1-2.1 0-1.9 1.7 1 7.9 1.4 3 2.4 5.5 2.3 5.6-.2.1-3.4 0-7.1-.4l-6.8-.6 3.5-3.4c2-1.9 3.6-3.9 3.6-4.4 0-1.2-15.1-8.1-23.5-10.7-3.8-1.3-7.3-2.6-7.7-2.9-.5-.4.1-3.1 1.1-6.1 1.8-5.1 2.2-5.5 5.3-5.8 5.6-.4 7.5-1.1 10.6-3.7l2.9-2.5.7 3.8c.3 2 .6 4.9.6 6.4 0 1.6.4 2.8.8 2.8 1.3 0 5.2-15 6.5-24.7.6-4.6 1.2-8.3 1.3-8.3 0 0 2.2 3.1 4.7 6.9zm-172.3 5c2.5 5 6 7.8 11.1 8.6 2.4.4 4.3 1.4 4.6 2.3.3 1 1.6 4 2.8 6.8l2.3 5.2-6.2 1.7c-19.3 5.2-20.6 5.7-20.6 8.1 0 1.2 1 4.7 2.1 7.8l2.2 5.6-3.9 3.5c-4.8 4.2-5.7 4.3-5 .7 1.3-7.1 1.6-12.1.8-12.6-.5-.3-2.2.4-3.6 1.5-1.5 1.2-3 1.9-3.3 1.6-.3-.3 2.1-5.5 5.3-11.6 3.1-6.1 5.4-11.4 5-11.8-.4-.4-5.7 1-11.9 3S19 195 18.6 195c-.4 0 1.6-2.6 4.5-5.8 2.9-3.1 6.8-7.8 8.8-10.5 1.9-2.6 3.8-4.7 4.2-4.7.4 0 1.1 1.7 1.7 3.7l.9 3.8 2.3-5c2.3-5.1 4.9-9.5 5.6-9.5.2 0 1.3 1.8 2.4 3.9z"/><path d="M78 49.1c-16 1.2-24.6 2.7-26.3 4.7C49.6 56.3 40 77.5 40 79.7c0 4.4 5.1 5.6 11.8 2.7 2-.8 9.1-2.8 15.7-4.4 11.1-2.7 33.5-9.9 37.7-12.1 2.3-1.3 5.6-7.7 6.4-12.7.5-3.5.4-4-1.7-4.5-3.1-.9-17.3-.6-31.9.4zm32.3 3.6c-.2 1.3-1.2 4.2-2.3 6.7-1.7 3.5-3 4.8-6.8 6.4C95.1 68.4 71.5 76 69.6 76c-.8 0-6.9 1.6-13.6 3.5-6.6 2-12.5 3.3-13 3-2.2-1.4-.7-6.9 4.8-17.7 5.4-10.8 5.9-11.3 9.4-12 9-1.8 20.5-2.6 36.3-2.4 16.9.1 17 .1 16.8 2.3zM148 56.4c0 8.3.1 8.5 3.2 11.2 4.2 3.5 9.7 5.8 18.9 7.9 4.1.9 13.5 3.4 20.9 5.6 20.3 5.9 24.8 5.2 23.7-3.4-.7-5.8-4.5-15.6-7.2-18.3-1.2-1.2-5.3-3.2-9.1-4.4-9.8-3-34.2-7-43-7H148v8.4zm27-4.8c10.5 1.6 23.7 4.8 28.8 6.9 3.8 1.6 6.6 7.1 8.3 16 2 10.8.4 11.4-17.2 6-6.3-1.9-15.7-4.4-20.9-5.6-10-2.1-19.9-6-22.4-8.8-1.6-1.8-1.9-3.4-1.7-11.5l.1-5.8 7.8.6c4.2.4 12 1.4 17.2 2.2zM117.7 56.2c-1.8 3.1-1.8 3.2.3 5.2 1.8 1.9 3.2 2.1 13.9 2.1 6.6 0 12.1-.2 12.4-.5.2-.3.7-2.1 1.1-4.1.6-3.2.3-3.7-1.9-4.7-1.5-.7-7.3-1.2-13.3-1.2h-10.7l-1.8 3.2zm25.4-.5c.7.7.6 1.9-.2 3.6-1.1 2.3-1.8 2.6-9.7 3.3-5.2.4-9.2.3-10.1-.3-2-1.3-2.6-4.2-1.2-5.6 2.4-2.4 19-3.2 21.2-1zM152 108c-5.5 3-13 9.9-13 12.1 0 .6 2.5-1.2 5.6-4 6.3-5.8 9.8-7.8 16.4-9.7l4.5-1.2-4-.1c-2.7 0-5.9.9-9.5 2.9zM64 142.6c0 .4 1.2 2 2.6 3.5 2.5 2.6 2.5 2.8 1 5.8-2 3.8-.9 4.1 1.9.6 1.8-2.3 2.2-2.4 3.9-1.2 1.6 1.1 1.7 1.7.6 3.6-1.5 2.9-.3 4.2 1.5 1.7.8-1 1.6-2.2 1.7-2.6.2-.4 2-.5 4-.2 3.1.3 3.7.8 4.1 3.1l.3 2.6 1.1-2.6c.7-1.7 2.2-2.8 4.1-3.2 3.2-.6 9.2-5.2 9.2-7 0-.6-1.2.1-2.7 1.5-4.1 3.9-8 5.1-14.3 4.3-6.5-.8-9.7-2.4-15.1-7.2-2.1-1.9-3.9-3.2-3.9-2.7zM142 145c0 2.3 7.5 8.8 11.5 9.9 2.2.6 7.9 1.1 12.7 1.1 8.6 0 8.7 0 11.2 3.2 1.4 1.8 2.8 3 3.1 2.6.3-.3-.6-1.9-2-3.6-2.6-3.1-2.6-3.1-.5-4.2 1.7-.9 2.7-.7 5.4.9 4.7 2.9 5.7 2.5 1.9-.7-3.1-2.7-3.2-2.7-1.3-5.2 1.6-2.2 2.1-2.3 4.5-1.2 4.2 1.9 4.1.7-.1-1.7-3.9-2.3-3.9-2.3-6.5 2.1-2.7 4.8-16.2 7.8-25.9 5.7-4.2-.9-6.2-2.1-9.6-5.6-2.4-2.5-4.4-3.9-4.4-3.3zM104 185.9c-1.5 3-1.2 6.6.8 8.4 2.2 2 12.8 2.3 17.7.6 2.6-1 3.7-.8 7.3 1 7.9 4 13.7 1.8 13-5.1l-.4-3.3-.8 3c-.5 1.6-1.3 3.6-1.9 4.2-1.3 1.8-6.3 1.6-9.2-.3-1.8-1.2-3.6-1.4-6.2-.9-2.1.3-6.6.9-10.1 1.2-8.1.6-9.6-.5-8.7-6.4.7-4.6.2-5.4-1.5-2.4zM86.5 213.7c-8.3 1.3-1.6 1.8 26.8 1.8 27.8 0 37.9.6 36.5 2.1-.3.2-11 3.1-23.9 6.3-32.4 8.1-32.7 8.3-15.9 9.2 17 1 29.9 2.5 42 5.1 8.7 1.8 24 5.8 28.6 7.4 1.3.5 1.6.4.9-.4-3.2-3.3-34.6-10.4-56.2-12.7-7.5-.8-13.8-1.6-14-1.9-.9-.9 15.2-5.4 28.4-8 20.7-4.1 22.4-5.3 10.3-7.6-6.5-1.2-57.8-2.3-63.5-1.3z"/></svg>