<svg xmlns="http://www.w3.org/2000/svg" width="128" height="128"><path d="M0 0h128v128H0z" style="fill:#fff"/><path d="M2.98 2.98h2.98v2.98H2.98z"/><path d="M5.95 2.98h2.98v2.98H5.95zm2.98 0h2.98v2.98H8.93zm2.98 0h2.98v2.98h-2.98z"/><path d="M14.88 2.98h2.98v2.98h-2.98zm2.98 0h2.98v2.98h-2.98zm2.98 0h2.98v2.98h-2.98zm5.95 0h2.98v2.98h-2.98zm5.95 0h2.98v2.98h-2.98zm2.98 0h2.98v2.98h-2.98zm2.98 0h2.98v2.98H38.7zm8.93 0h2.98v2.98h-2.98z"/><path d="M50.6 2.98h2.98v2.98H50.6zm2.98 0h2.98v2.98h-2.98zm2.98 0h2.98v2.98h-2.98zm5.95 0h2.98v2.98h-2.98zm5.96 0h2.98v2.98h-2.98zm5.95 0h2.98v2.98h-2.98zm2.98 0h2.98v2.98H77.4z"/><path d="M80.37 2.98h2.98v2.98h-2.98z"/><path d="M83.35 2.98h2.98v2.98h-2.98zm5.95 0h2.98v2.98H89.3zm14.89 0h2.98v2.98h-2.98z"/><path d="M107.16 2.98h2.98v2.98h-2.98zm2.98 0h2.98v2.98h-2.98zm2.98 0h2.98v2.98h-2.98z"/><path d="M116.09 2.98h2.98v2.98h-2.98z"/><path d="M119.07 2.98h2.98v2.98h-2.98zm2.98 0h2.98v2.98h-2.98zM2.98 5.95h2.98v2.98H2.98zm17.86 0h2.98v2.98h-2.98zm26.79 0h2.98v2.98h-2.98zm11.9 0h2.98v2.98h-2.98zm2.98 0h2.98v2.98h-2.98zm5.96 0h2.98v2.98h-2.98zm11.9 0h2.98v2.98h-2.98zm2.98 0h2.98v2.98h-2.98zm2.98 0h2.98v2.98h-2.98z"/><path d="M89.3 5.95h2.98v2.98H89.3zm2.98 0h2.98v2.98h-2.98zm2.98 0h2.98v2.98h-2.98z"/><path d="M98.23 5.95h2.98v2.98h-2.98zm5.96 0h2.98v2.98h-2.98zm17.86 0h2.98v2.98h-2.98zM2.98 8.93h2.98v2.98H2.98zm5.95 0h2.98v2.98H8.93zm2.98 0h2.98v2.98h-2.98z"/><path d="M14.88 8.93h2.98v2.98h-2.98zm5.96 0h2.98v2.98h-2.98zm11.9 0h2.98v2.98h-2.98zm2.98 0h2.98v2.98h-2.98zm5.95 0h2.98v2.98h-2.98zm2.98 0h2.98v2.98h-2.98zm5.95 0h2.98v2.98H50.6zm2.98 0h2.98v2.98h-2.98zm2.98 0h2.98v2.98h-2.98z"/><path d="M59.53 8.93h2.98v2.98h-2.98zm2.98 0h2.98v2.98h-2.98zm2.98 0h2.98v2.98h-2.98zm2.98 0h2.98v2.98h-2.98z"/><path d="M71.44 8.93h2.98v2.98h-2.98zm2.98 0h2.98v2.98h-2.98zm2.98 0h2.98v2.98H77.4z"/><path d="M80.37 8.93h2.98v2.98h-2.98z"/><path d="M83.35 8.93h2.98v2.98h-2.98zm2.98 0h2.98v2.98h-2.98zm8.93 0h2.98v2.98h-2.98zm8.93 0h2.98v2.98h-2.98zm5.95 0h2.98v2.98h-2.98zm2.98 0h2.98v2.98h-2.98z"/><path d="M116.09 8.93h2.98v2.98h-2.98zm5.96 0h2.98v2.98h-2.98zM2.98 11.91h2.98v2.98H2.98zm5.95 0h2.98v2.98H8.93zm2.98 0h2.98v2.98h-2.98z"/><path d="M14.88 11.91h2.98v2.98h-2.98zm5.96 0h2.98v2.98h-2.98zm5.95 0h2.98v2.98h-2.98zm2.98 0h2.98v2.98h-2.98z"/><path d="M32.74 11.91h2.98v2.98h-2.98zm8.93 0h2.98v2.98h-2.98zm11.91 0h2.98v2.98h-2.98zm2.98 0h2.98v2.98h-2.98zm20.84 0h2.98v2.98H77.4z"/><path d="M80.37 11.91h2.98v2.98h-2.98z"/><path d="M83.35 11.91h2.98v2.98h-2.98zm2.98 0h2.98v2.98h-2.98z"/><path d="M89.3 11.91h2.98v2.98H89.3zm14.89 0h2.98v2.98h-2.98zm5.95 0h2.98v2.98h-2.98zm2.98 0h2.98v2.98h-2.98z"/><path d="M116.09 11.91h2.98v2.98h-2.98zm5.96 0h2.98v2.98h-2.98zM2.98 14.88h2.98v2.98H2.98zm5.95 0h2.98v2.98H8.93zm2.98 0h2.98v2.98h-2.98z"/><path d="M14.88 14.88h2.98v2.98h-2.98zm5.96 0h2.98v2.98h-2.98zm8.93 0h2.98v2.98h-2.98zm5.95 0h2.98v2.98h-2.98zm17.86 0h2.98v2.98h-2.98zm14.89 0h2.98v2.98h-2.98z"/><path d="M71.44 14.88h2.98v2.98h-2.98zm5.96 0h2.98v2.98H77.4z"/><path d="M80.37 14.88h2.98v2.98h-2.98z"/><path d="M83.35 14.88h2.98v2.98h-2.98zm8.93 0h2.98v2.98h-2.98zm2.98 0h2.98v2.98h-2.98z"/><path d="M98.23 14.88h2.98v2.98h-2.98zm5.96 0h2.98v2.98h-2.98zm5.95 0h2.98v2.98h-2.98zm2.98 0h2.98v2.98h-2.98z"/><path d="M116.09 14.88h2.98v2.98h-2.98zm5.96 0h2.98v2.98h-2.98zM2.98 17.86h2.98v2.98H2.98zm17.86 0h2.98v2.98h-2.98zm8.93 0h2.98v2.98h-2.98z"/><path d="M32.74 17.86h2.98v2.98h-2.98zm5.96 0h2.98v2.98H38.7zm11.9 0h2.98v2.98H50.6zm2.98 0h2.98v2.98h-2.98zm11.91 0h2.98v2.98h-2.98zm2.98 0h2.98v2.98h-2.98z"/><path d="M71.44 17.86h2.98v2.98h-2.98zm2.98 0h2.98v2.98h-2.98zm2.98 0h2.98v2.98H77.4z"/><path d="M80.37 17.86h2.98v2.98h-2.98z"/><path d="M83.35 17.86h2.98v2.98h-2.98zm8.93 0h2.98v2.98h-2.98zm2.98 0h2.98v2.98h-2.98z"/><path d="M98.23 17.86h2.98v2.98h-2.98zm5.96 0h2.98v2.98h-2.98zm17.86 0h2.98v2.98h-2.98zM2.98 20.84h2.98v2.98H2.98z"/><path d="M5.95 20.84h2.98v2.98H5.95zm2.98 0h2.98v2.98H8.93zm2.98 0h2.98v2.98h-2.98z"/><path d="M14.88 20.84h2.98v2.98h-2.98zm2.98 0h2.98v2.98h-2.98zm2.98 0h2.98v2.98h-2.98zm5.95 0h2.98v2.98h-2.98zm5.95 0h2.98v2.98h-2.98zm5.96 0h2.98v2.98H38.7zm5.95 0h2.98v2.98h-2.98zm5.95 0h2.98v2.98H50.6zm5.96 0h2.98v2.98h-2.98zm5.95 0h2.98v2.98h-2.98zm5.96 0h2.98v2.98h-2.98zm5.95 0h2.98v2.98h-2.98zm5.95 0h2.98v2.98h-2.98zm5.96 0h2.98v2.98h-2.98zm5.95 0h2.98v2.98h-2.98zm5.95 0h2.98v2.98h-2.98zm5.96 0h2.98v2.98h-2.98z"/><path d="M107.16 20.84h2.98v2.98h-2.98zm2.98 0h2.98v2.98h-2.98zm2.98 0h2.98v2.98h-2.98z"/><path d="M116.09 20.84h2.98v2.98h-2.98z"/><path d="M119.07 20.84h2.98v2.98h-2.98zm2.98 0h2.98v2.98h-2.98zm-89.31 2.97h2.98v2.98h-2.98zm2.98 0h2.98v2.98h-2.98zm8.93 0h2.98v2.98h-2.98zm2.98 0h2.98v2.98h-2.98z"/><path d="M50.6 23.81h2.98v2.98H50.6zm11.91 0h2.98v2.98h-2.98zm2.98 0h2.98v2.98h-2.98zm2.98 0h2.98v2.98h-2.98zm8.93 0h2.98v2.98H77.4z"/><path d="M80.37 23.81h2.98v2.98h-2.98z"/><path d="M83.35 23.81h2.98v2.98h-2.98zm2.98 0h2.98v2.98h-2.98z"/><path d="M89.3 23.81h2.98v2.98H89.3zm8.93 0h2.98v2.98h-2.98zm-89.3 2.98h2.98v2.98H8.93zm5.95 0h2.98v2.98h-2.98zm2.98 0h2.98v2.98h-2.98zm2.98 0h2.98v2.98h-2.98zm5.95 0h2.98v2.98h-2.98zm8.93 0h2.98v2.98h-2.98zm5.95 0h2.98v2.98h-2.98zm5.96 0h2.98v2.98h-2.98zm5.95 0h2.98v2.98h-2.98zm2.98 0h2.98v2.98h-2.98z"/><path d="M59.53 26.79h2.98v2.98h-2.98zm2.98 0h2.98v2.98h-2.98zm2.98 0h2.98v2.98h-2.98zm2.98 0h2.98v2.98h-2.98z"/><path d="M71.44 26.79h2.98v2.98h-2.98zm5.96 0h2.98v2.98H77.4z"/><path d="M80.37 26.79h2.98v2.98h-2.98z"/><path d="M83.35 26.79h2.98v2.98h-2.98zm2.98 0h2.98v2.98h-2.98z"/><path d="M89.3 26.79h2.98v2.98H89.3zm2.98 0h2.98v2.98h-2.98zm2.98 0h2.98v2.98h-2.98z"/><path d="M98.23 26.79h2.98v2.98h-2.98z"/><path d="M101.21 26.79h2.98v2.98h-2.98zm11.91 0h2.98v2.98h-2.98zm8.93 0h2.98v2.98h-2.98zM5.95 29.77h2.98v2.98H5.95zm2.98 0h2.98v2.98H8.93zm17.86 0h2.98v2.98h-2.98zm2.98 0h2.98v2.98h-2.98z"/><path d="M32.74 29.77h2.98v2.98h-2.98zm5.96 0h2.98v2.98H38.7z"/><path d="M41.67 29.77h2.98v2.98h-2.98zm5.96 0h2.98v2.98h-2.98zm8.93 0h2.98v2.98h-2.98z"/><path d="M59.53 29.77h2.98v2.98h-2.98zm2.98 0h2.98v2.98h-2.98zm2.98 0h2.98v2.98h-2.98zm5.95 0h2.98v2.98h-2.98zm5.96 0h2.98v2.98H77.4zm5.95 0h2.98v2.98h-2.98zm2.98 0h2.98v2.98h-2.98zm5.95 0h2.98v2.98h-2.98zm5.95 0h2.98v2.98h-2.98z"/><path d="M101.21 29.77h2.98v2.98h-2.98zM5.95 32.74h2.98v2.98H5.95zm2.98 0h2.98v2.98H8.93zm2.98 0h2.98v2.98h-2.98z"/><path d="M14.88 32.74h2.98v2.98h-2.98zm2.98 0h2.98v2.98h-2.98zm2.98 0h2.98v2.98h-2.98zm5.95 0h2.98v2.98h-2.98zm2.98 0h2.98v2.98h-2.98zm5.95 0h2.98v2.98h-2.98zm2.98 0h2.98v2.98H38.7zm5.95 0h2.98v2.98h-2.98zm11.91 0h2.98v2.98h-2.98z"/><path d="M59.53 32.74h2.98v2.98h-2.98zm2.98 0h2.98v2.98h-2.98zm2.98 0h2.98v2.98h-2.98zm8.93 0h2.98v2.98h-2.98zm2.98 0h2.98v2.98H77.4zm20.83 0h2.98v2.98h-2.98zm5.96 0h2.98v2.98h-2.98zm8.93 0h2.98v2.98h-2.98zm5.95 0h2.98v2.98h-2.98zm2.98 0h2.98v2.98h-2.98zM14.88 35.72h2.98v2.98h-2.98zm11.91 0h2.98v2.98h-2.98zm2.98 0h2.98v2.98h-2.98zm5.95 0h2.98v2.98h-2.98zm2.98 0h2.98v2.98H38.7zm5.95 0h2.98v2.98h-2.98zm8.93 0h2.98v2.98h-2.98zm5.95 0h2.98v2.98h-2.98zm2.98 0h2.98v2.98h-2.98zm2.98 0h2.98v2.98h-2.98zm2.98 0h2.98v2.98h-2.98zm5.95 0h2.98v2.98h-2.98zm8.93 0h2.98v2.98h-2.98zm5.95 0h2.98v2.98H89.3zm2.98 0h2.98v2.98h-2.98zm8.93 0h2.98v2.98h-2.98zm-89.3 2.98h2.98v2.98h-2.98zm8.93 0h2.98v2.98h-2.98z"/><path d="M23.81 38.7h2.98v2.98h-2.98zm17.86 0h2.98v2.98h-2.98zm11.91 0h2.98v2.98h-2.98zm2.98 0h2.98v2.98h-2.98z"/><path d="M59.53 38.7h2.98v2.98h-2.98zm5.96 0h2.98v2.98h-2.98zm2.98 0h2.98v2.98h-2.98zm8.93 0h2.98v2.98H77.4zm5.95 0h2.98v2.98h-2.98zm14.88 0h2.98v2.98h-2.98z"/><path d="M101.21 38.7h2.98v2.98h-2.98zm2.98 0h2.98v2.98h-2.98zm8.93 0h2.98v2.98h-2.98zm5.95 0h2.98v2.98h-2.98zm2.98 0h2.98v2.98h-2.98zM11.91 41.67h2.98v2.98h-2.98z"/><path d="M14.88 41.67h2.98v2.98h-2.98zm2.98 0h2.98v2.98h-2.98zm8.93 0h2.98v2.98h-2.98zm11.91 0h2.98v2.98H38.7z"/><path d="M41.67 41.67h2.98v2.98h-2.98zm11.91 0h2.98v2.98h-2.98zm2.98 0h2.98v2.98h-2.98zm11.91 0h2.98v2.98h-2.98z"/><path d="M71.44 41.67h2.98v2.98h-2.98zm2.98 0h2.98v2.98h-2.98zm5.95 0h2.98v2.98h-2.98z"/><path d="M83.35 41.67h2.98v2.98h-2.98zm11.91 0h2.98v2.98h-2.98z"/><path d="M98.23 41.67h2.98v2.98h-2.98z"/><path d="M101.21 41.67h2.98v2.98h-2.98zm2.98 0h2.98v2.98h-2.98zm8.93 0h2.98v2.98h-2.98z"/><path d="M116.09 41.67h2.98v2.98h-2.98zM5.95 44.65h2.98v2.98H5.95zm2.98 0h2.98v2.98H8.93zm5.95 0h2.98v2.98h-2.98zm5.96 0h2.98v2.98h-2.98zm11.9 0h2.98v2.98h-2.98zm2.98 0h2.98v2.98h-2.98zm8.93 0h2.98v2.98h-2.98zm5.95 0h2.98v2.98H50.6zm8.93 0h2.98v2.98h-2.98zm5.96 0h2.98v2.98h-2.98zm2.98 0h2.98v2.98h-2.98z"/><path d="M71.44 44.65h2.98v2.98h-2.98zm2.98 0h2.98v2.98h-2.98zm5.95 0h2.98v2.98h-2.98zm11.91 0h2.98v2.98h-2.98zm5.95 0h2.98v2.98h-2.98z"/><path d="M101.21 44.65h2.98v2.98h-2.98zm8.93 0h2.98v2.98h-2.98zm8.93 0h2.98v2.98h-2.98zm2.98 0h2.98v2.98h-2.98zM2.98 47.63h2.98v2.98H2.98zm5.95 0h2.98v2.98H8.93zm8.93 0h2.98v2.98h-2.98zm11.91 0h2.98v2.98h-2.98z"/><path d="M32.74 47.63h2.98v2.98h-2.98zm5.96 0h2.98v2.98H38.7z"/><path d="M41.67 47.63h2.98v2.98h-2.98zm8.93 0h2.98v2.98H50.6zm2.98 0h2.98v2.98h-2.98zm5.95 0h2.98v2.98h-2.98zm8.94 0h2.98v2.98h-2.98zm5.95 0h2.98v2.98h-2.98zm2.98 0h2.98v2.98H77.4zm5.95 0h2.98v2.98h-2.98zm5.95 0h2.98v2.98H89.3zm5.96 0h2.98v2.98h-2.98zm8.93 0h2.98v2.98h-2.98z"/><path d="M107.16 47.63h2.98v2.98h-2.98zm11.91 0h2.98v2.98h-2.98zm2.98 0h2.98v2.98h-2.98zM2.98 50.6h2.98v2.98H2.98z"/><path d="M5.95 50.6h2.98v2.98H5.95zm2.98 0h2.98v2.98H8.93zm2.98 0h2.98v2.98h-2.98zm8.93 0h2.98v2.98h-2.98zm8.93 0h2.98v2.98h-2.98zm5.95 0h2.98v2.98h-2.98zm2.98 0h2.98v2.98H38.7z"/><path d="M41.67 50.6h2.98v2.98h-2.98zm8.93 0h2.98v2.98H50.6zm5.96 0h2.98v2.98h-2.98z"/><path d="M59.53 50.6h2.98v2.98h-2.98zm14.89 0h2.98v2.98h-2.98zm5.95 0h2.98v2.98h-2.98zm5.96 0h2.98v2.98h-2.98z"/><path d="M89.3 50.6h2.98v2.98H89.3zm5.96 0h2.98v2.98h-2.98z"/><path d="M98.23 50.6h2.98v2.98h-2.98zm5.96 0h2.98v2.98h-2.98zm8.93 0h2.98v2.98h-2.98z"/><path d="M116.09 50.6h2.98v2.98h-2.98z"/><path d="M119.07 50.6h2.98v2.98h-2.98zm2.98 0h2.98v2.98h-2.98zM2.98 53.58h2.98v2.98H2.98zm5.95 0h2.98v2.98H8.93zm17.86 0h2.98v2.98h-2.98zm11.91 0h2.98v2.98H38.7z"/><path d="M41.67 53.58h2.98v2.98h-2.98zm2.98 0h2.98v2.98h-2.98zm2.98 0h2.98v2.98h-2.98zm5.95 0h2.98v2.98h-2.98zm5.95 0h2.98v2.98h-2.98zm11.91 0h2.98v2.98h-2.98zm11.91 0h2.98v2.98h-2.98zm2.98 0h2.98v2.98h-2.98zm11.9 0h2.98v2.98h-2.98z"/><path d="M101.21 53.58h2.98v2.98h-2.98zm2.98 0h2.98v2.98h-2.98z"/><path d="M107.16 53.58h2.98v2.98h-2.98zm5.96 0h2.98v2.98h-2.98zM2.98 56.56h2.98v2.98H2.98zm8.93 0h2.98v2.98h-2.98z"/><path d="M14.88 56.56h2.98v2.98h-2.98zm2.98 0h2.98v2.98h-2.98zm2.98 0h2.98v2.98h-2.98zm5.95 0h2.98v2.98h-2.98zm5.95 0h2.98v2.98h-2.98zm5.96 0h2.98v2.98H38.7z"/><path d="M41.67 56.56h2.98v2.98h-2.98zm2.98 0h2.98v2.98h-2.98zm2.98 0h2.98v2.98h-2.98z"/><path d="M50.6 56.56h2.98v2.98H50.6zm2.98 0h2.98v2.98h-2.98zm2.98 0h2.98v2.98h-2.98z"/><path d="M59.53 56.56h2.98v2.98h-2.98zm5.96 0h2.98v2.98h-2.98zm2.98 0h2.98v2.98h-2.98z"/><path d="M71.44 56.56h2.98v2.98h-2.98zm2.98 0h2.98v2.98h-2.98zm5.95 0h2.98v2.98h-2.98zm8.93 0h2.98v2.98H89.3zm8.93 0h2.98v2.98h-2.98z"/><path d="M101.21 56.56h2.98v2.98h-2.98zm11.91 0h2.98v2.98h-2.98z"/><path d="M116.09 56.56h2.98v2.98h-2.98z"/><path d="M119.07 56.56h2.98v2.98h-2.98zm2.98 0h2.98v2.98h-2.98zM8.93 59.53h2.98v2.98H8.93zm2.98 0h2.98v2.98h-2.98z"/><path d="M14.88 59.53h2.98v2.98h-2.98zm2.98 0h2.98v2.98h-2.98zm5.95 0h2.98v2.98h-2.98zm5.96 0h2.98v2.98h-2.98zm8.93 0h2.98v2.98H38.7z"/><path d="M41.67 59.53h2.98v2.98h-2.98zm8.93 0h2.98v2.98H50.6zm8.93 0h2.98v2.98h-2.98zm2.98 0h2.98v2.98h-2.98zm14.89 0h2.98v2.98H77.4zm5.95 0h2.98v2.98h-2.98zm2.98 0h2.98v2.98h-2.98zm8.93 0h2.98v2.98h-2.98zm5.95 0h2.98v2.98h-2.98zm5.95 0h2.98v2.98h-2.98zm2.98 0h2.98v2.98h-2.98zm8.93 0h2.98v2.98h-2.98zm2.98 0h2.98v2.98h-2.98zM8.93 62.51h2.98v2.98H8.93zm5.95 0h2.98v2.98h-2.98zm2.98 0h2.98v2.98h-2.98zm2.98 0h2.98v2.98h-2.98zm5.95 0h2.98v2.98h-2.98zm2.98 0h2.98v2.98h-2.98zm5.95 0h2.98v2.98h-2.98zm14.88 0h2.98v2.98H50.6zm5.96 0h2.98v2.98h-2.98zm8.93 0h2.98v2.98h-2.98zm2.98 0h2.98v2.98h-2.98z"/><path d="M71.44 62.51h2.98v2.98h-2.98zm5.96 0h2.98v2.98H77.4z"/><path d="M80.37 62.51h2.98v2.98h-2.98z"/><path d="M83.35 62.51h2.98v2.98h-2.98zm2.98 0h2.98v2.98h-2.98zm8.93 0h2.98v2.98h-2.98z"/><path d="M98.23 62.51h2.98v2.98h-2.98z"/><path d="M101.21 62.51h2.98v2.98h-2.98zm2.98 0h2.98v2.98h-2.98z"/><path d="M107.16 62.51h2.98v2.98h-2.98zm2.98 0h2.98v2.98h-2.98zm2.98 0h2.98v2.98h-2.98zm8.93 0h2.98v2.98h-2.98zM5.95 65.49h2.98v2.98H5.95zm2.98 0h2.98v2.98H8.93zm5.95 0h2.98v2.98h-2.98zm11.91 0h2.98v2.98h-2.98zm5.95 0h2.98v2.98h-2.98zm2.98 0h2.98v2.98h-2.98zm8.93 0h2.98v2.98h-2.98zm2.98 0h2.98v2.98h-2.98zm11.9 0h2.98v2.98h-2.98zm23.82 0h2.98v2.98h-2.98zm2.98 0h2.98v2.98h-2.98z"/><path d="M89.3 65.49h2.98v2.98H89.3zm5.96 0h2.98v2.98h-2.98z"/><path d="M98.23 65.49h2.98v2.98h-2.98z"/><path d="M101.21 65.49h2.98v2.98h-2.98zm2.98 0h2.98v2.98h-2.98zm8.93 0h2.98v2.98h-2.98zm8.93 0h2.98v2.98h-2.98zM2.98 68.47h2.98v2.98H2.98z"/><path d="M5.95 68.47h2.98v2.98H5.95zm2.98 0h2.98v2.98H8.93zm2.98 0h2.98v2.98h-2.98z"/><path d="M14.88 68.47h2.98v2.98h-2.98zm5.96 0h2.98v2.98h-2.98zm8.93 0h2.98v2.98h-2.98zm5.95 0h2.98v2.98h-2.98zm5.95 0h2.98v2.98h-2.98zm5.96 0h2.98v2.98h-2.98z"/><path d="M50.6 68.47h2.98v2.98H50.6zm2.98 0h2.98v2.98h-2.98zm2.98 0h2.98v2.98h-2.98z"/><path d="M59.53 68.47h2.98v2.98h-2.98zm2.98 0h2.98v2.98h-2.98zm2.98 0h2.98v2.98h-2.98zm2.98 0h2.98v2.98h-2.98z"/><path d="M71.44 68.47h2.98v2.98h-2.98zm8.93 0h2.98v2.98h-2.98zm11.91 0h2.98v2.98h-2.98zm8.93 0h2.98v2.98h-2.98zm14.88 0h2.98v2.98h-2.98z"/><path d="M119.07 68.47h2.98v2.98h-2.98zm2.98 0h2.98v2.98h-2.98zM8.93 71.44h2.98v2.98H8.93zm2.98 0h2.98v2.98h-2.98zm5.95 0h2.98v2.98h-2.98zm5.95 0h2.98v2.98h-2.98zm2.98 0h2.98v2.98h-2.98zm2.98 0h2.98v2.98h-2.98z"/><path d="M32.74 71.44h2.98v2.98h-2.98zm2.98 0h2.98v2.98h-2.98zm11.91 0h2.98v2.98h-2.98z"/><path d="M50.6 71.44h2.98v2.98H50.6zm2.98 0h2.98v2.98h-2.98zm5.95 0h2.98v2.98h-2.98zm8.94 0h2.98v2.98h-2.98zm17.86 0h2.98v2.98h-2.98z"/><path d="M89.3 71.44h2.98v2.98H89.3zm8.93 0h2.98v2.98h-2.98zm2.98 0h2.98v2.98h-2.98zm2.98 0h2.98v2.98h-2.98zM5.95 74.42h2.98v2.98H5.95zm5.96 0h2.98v2.98h-2.98zm5.95 0h2.98v2.98h-2.98zm2.98 0h2.98v2.98h-2.98z"/><path d="M23.81 74.42h2.98v2.98h-2.98zm2.98 0h2.98v2.98h-2.98zm2.98 0h2.98v2.98h-2.98z"/><path d="M32.74 74.42h2.98v2.98h-2.98zm5.96 0h2.98v2.98H38.7z"/><path d="M41.67 74.42h2.98v2.98h-2.98zm2.98 0h2.98v2.98h-2.98zm2.98 0h2.98v2.98h-2.98z"/><path d="M50.6 74.42h2.98v2.98H50.6zm8.93 0h2.98v2.98h-2.98zm2.98 0h2.98v2.98h-2.98zm8.93 0h2.98v2.98h-2.98zm14.89 0h2.98v2.98h-2.98z"/><path d="M89.3 74.42h2.98v2.98H89.3zm14.89 0h2.98v2.98h-2.98z"/><path d="M107.16 74.42h2.98v2.98h-2.98zm2.98 0h2.98v2.98h-2.98zm2.98 0h2.98v2.98h-2.98zm5.95 0h2.98v2.98h-2.98zm2.98 0h2.98v2.98h-2.98zM2.98 77.4h2.98v2.98H2.98zm14.88 0h2.98v2.98h-2.98zm11.91 0h2.98v2.98h-2.98z"/><path d="M32.74 77.4h2.98v2.98h-2.98zm8.93 0h2.98v2.98h-2.98zm2.98 0h2.98v2.98h-2.98zm2.98 0h2.98v2.98h-2.98z"/><path d="M50.6 77.4h2.98v2.98H50.6zm2.98 0h2.98v2.98h-2.98zm2.98 0h2.98v2.98h-2.98zm5.95 0h2.98v2.98h-2.98zm8.93 0h2.98v2.98h-2.98zm2.98 0h2.98v2.98h-2.98zm2.98 0h2.98v2.98H77.4z"/><path d="M80.37 77.4h2.98v2.98h-2.98zm5.96 0h2.98v2.98h-2.98z"/><path d="M89.3 77.4h2.98v2.98H89.3zm14.89 0h2.98v2.98h-2.98zm8.93 0h2.98v2.98h-2.98z"/><path d="M116.09 77.4h2.98v2.98h-2.98z"/><path d="M119.07 77.4h2.98v2.98h-2.98zM8.93 80.37h2.98v2.98H8.93zm2.98 0h2.98v2.98h-2.98zm5.95 0h2.98v2.98h-2.98zm2.98 0h2.98v2.98h-2.98zm5.95 0h2.98v2.98h-2.98zm2.98 0h2.98v2.98h-2.98zm8.93 0h2.98v2.98H38.7z"/><path d="M41.67 80.37h2.98v2.98h-2.98zm2.98 0h2.98v2.98h-2.98zm11.91 0h2.98v2.98h-2.98z"/><path d="M59.53 80.37h2.98v2.98h-2.98zm5.96 0h2.98v2.98h-2.98zm5.95 0h2.98v2.98h-2.98zm5.96 0h2.98v2.98H77.4z"/><path d="M80.37 80.37h2.98v2.98h-2.98zm8.93 0h2.98v2.98H89.3zm8.93 0h2.98v2.98h-2.98z"/><path d="M101.21 80.37h2.98v2.98h-2.98zm14.88 0h2.98v2.98h-2.98zm2.98 0h2.98v2.98h-2.98zm2.98 0h2.98v2.98h-2.98zM11.91 83.35h2.98v2.98h-2.98zm5.95 0h2.98v2.98h-2.98zm8.93 0h2.98v2.98h-2.98zm5.95 0h2.98v2.98h-2.98zm5.96 0h2.98v2.98H38.7zm5.95 0h2.98v2.98h-2.98zm8.93 0h2.98v2.98h-2.98zm2.98 0h2.98v2.98h-2.98z"/><path d="M59.53 83.35h2.98v2.98h-2.98zm8.94 0h2.98v2.98h-2.98z"/><path d="M71.44 83.35h2.98v2.98h-2.98zm8.93 0h2.98v2.98h-2.98z"/><path d="M83.35 83.35h2.98v2.98h-2.98zm5.95 0h2.98v2.98H89.3zm2.98 0h2.98v2.98h-2.98zm5.95 0h2.98v2.98h-2.98z"/><path d="M101.21 83.35h2.98v2.98h-2.98zm5.95 0h2.98v2.98h-2.98zm2.98 0h2.98v2.98h-2.98zM5.95 86.33h2.98v2.98H5.95zm5.96 0h2.98v2.98h-2.98z"/><path d="M14.88 86.33h2.98v2.98h-2.98zm5.96 0h2.98v2.98h-2.98zm8.93 0h2.98v2.98h-2.98zm11.9 0h2.98v2.98h-2.98zm8.93 0h2.98v2.98H50.6zm2.98 0h2.98v2.98h-2.98zm2.98 0h2.98v2.98h-2.98z"/><path d="M59.53 86.33h2.98v2.98h-2.98zm2.98 0h2.98v2.98h-2.98zm11.91 0h2.98v2.98h-2.98zm11.91 0h2.98v2.98h-2.98z"/><path d="M89.3 86.33h2.98v2.98H89.3zm8.93 0h2.98v2.98h-2.98zm2.98 0h2.98v2.98h-2.98zm2.98 0h2.98v2.98h-2.98z"/><path d="M107.16 86.33h2.98v2.98h-2.98zm5.96 0h2.98v2.98h-2.98zm8.93 0h2.98v2.98h-2.98zM5.95 89.3h2.98v2.98H5.95zm2.98 0h2.98v2.98H8.93zm14.88 0h2.98v2.98h-2.98zm20.84 0h2.98v2.98h-2.98zm2.98 0h2.98v2.98h-2.98z"/><path d="M50.6 89.3h2.98v2.98H50.6zm2.98 0h2.98v2.98h-2.98zm2.98 0h2.98v2.98h-2.98z"/><path d="M59.53 89.3h2.98v2.98h-2.98zm2.98 0h2.98v2.98h-2.98zm2.98 0h2.98v2.98h-2.98zm5.95 0h2.98v2.98h-2.98zm2.98 0h2.98v2.98h-2.98zm5.95 0h2.98v2.98h-2.98z"/><path d="M83.35 89.3h2.98v2.98h-2.98zm2.98 0h2.98v2.98h-2.98z"/><path d="M89.3 89.3h2.98v2.98H89.3zm8.93 0h2.98v2.98h-2.98zm2.98 0h2.98v2.98h-2.98zm5.95 0h2.98v2.98h-2.98zm5.96 0h2.98v2.98h-2.98z"/><path d="M116.09 89.3h2.98v2.98h-2.98zm5.96 0h2.98v2.98h-2.98zM2.98 92.28h2.98v2.98H2.98zm11.9 0h2.98v2.98h-2.98zm2.98 0h2.98v2.98h-2.98zm2.98 0h2.98v2.98h-2.98zm8.93 0h2.98v2.98h-2.98zm5.95 0h2.98v2.98h-2.98zm5.95 0h2.98v2.98h-2.98zm5.96 0h2.98v2.98h-2.98z"/><path d="M50.6 92.28h2.98v2.98H50.6zm5.96 0h2.98v2.98h-2.98zm8.93 0h2.98v2.98h-2.98zm8.93 0h2.98v2.98h-2.98zm2.98 0h2.98v2.98H77.4z"/><path d="M80.37 92.28h2.98v2.98h-2.98z"/><path d="M83.35 92.28h2.98v2.98h-2.98zm2.98 0h2.98v2.98h-2.98zm5.95 0h2.98v2.98h-2.98zm5.95 0h2.98v2.98h-2.98z"/><path d="M101.21 92.28h2.98v2.98h-2.98zm8.93 0h2.98v2.98h-2.98zm5.95 0h2.98v2.98h-2.98zm2.98 0h2.98v2.98h-2.98zm2.98 0h2.98v2.98h-2.98zM5.95 95.26h2.98v2.98H5.95zm2.98 0h2.98v2.98H8.93zm5.95 0h2.98v2.98h-2.98zm8.93 0h2.98v2.98h-2.98zm5.96 0h2.98v2.98h-2.98z"/><path d="M32.74 95.26h2.98v2.98h-2.98zm8.93 0h2.98v2.98h-2.98zm11.91 0h2.98v2.98h-2.98zm2.98 0h2.98v2.98h-2.98zm8.93 0h2.98v2.98h-2.98zm14.88 0h2.98v2.98h-2.98zm5.96 0h2.98v2.98h-2.98z"/><path d="M89.3 95.26h2.98v2.98H89.3zm2.98 0h2.98v2.98h-2.98zm5.95 0h2.98v2.98h-2.98zm5.96 0h2.98v2.98h-2.98zM2.98 98.23h2.98v2.98H2.98zm17.86 0h2.98v2.98h-2.98z"/><path d="M23.81 98.23h2.98v2.98h-2.98zm2.98 0h2.98v2.98h-2.98zm2.98 0h2.98v2.98h-2.98z"/><path d="M32.74 98.23h2.98v2.98h-2.98zm2.98 0h2.98v2.98h-2.98zm5.95 0h2.98v2.98h-2.98zm11.91 0h2.98v2.98h-2.98zm2.98 0h2.98v2.98h-2.98z"/><path d="M59.53 98.23h2.98v2.98h-2.98zm8.94 0h2.98v2.98h-2.98zm5.95 0h2.98v2.98h-2.98zm2.98 0h2.98v2.98H77.4zm5.95 0h2.98v2.98h-2.98zm2.98 0h2.98v2.98h-2.98z"/><path d="M89.3 98.23h2.98v2.98H89.3zm2.98 0h2.98v2.98h-2.98zm5.95 0h2.98v2.98h-2.98z"/><path d="M101.21 98.23h2.98v2.98h-2.98zm2.98 0h2.98v2.98h-2.98z"/><path d="M107.16 98.23h2.98v2.98h-2.98zm2.98 0h2.98v2.98h-2.98zm11.91 0h2.98v2.98h-2.98zm-95.26 2.98h2.98v2.98h-2.98zm8.93 0h2.98v2.98h-2.98zm17.86 0h2.98v2.98h-2.98zm2.98 0h2.98v2.98h-2.98z"/><path d="M59.53 101.21h2.98v2.98h-2.98zm20.84 0h2.98v2.98h-2.98zm8.93 0h2.98v2.98H89.3zm2.98 0h2.98v2.98h-2.98zm5.95 0h2.98v2.98h-2.98zm11.91 0h2.98v2.98h-2.98zM2.98 104.19h2.98v2.98H2.98z"/><path d="M5.95 104.19h2.98v2.98H5.95zm2.98 0h2.98v2.98H8.93zm2.98 0h2.98v2.98h-2.98z"/><path d="M14.88 104.19h2.98v2.98h-2.98zm2.98 0h2.98v2.98h-2.98zm2.98 0h2.98v2.98h-2.98zm8.93 0h2.98v2.98h-2.98zm14.88 0h2.98v2.98h-2.98zm2.98 0h2.98v2.98h-2.98zm11.9 0h2.98v2.98h-2.98zm2.98 0h2.98v2.98h-2.98zm2.98 0h2.98v2.98h-2.98zm5.95 0h2.98v2.98h-2.98zm14.89 0h2.98v2.98h-2.98zm5.95 0h2.98v2.98h-2.98zm2.98 0h2.98v2.98h-2.98z"/><path d="M98.23 104.19h2.98v2.98h-2.98zm5.96 0h2.98v2.98h-2.98zm5.95 0h2.98v2.98h-2.98zm2.98 0h2.98v2.98h-2.98zm5.95 0h2.98v2.98h-2.98zm2.98 0h2.98v2.98h-2.98zM2.98 107.16h2.98v2.98H2.98zm17.86 0h2.98v2.98h-2.98zm5.95 0h2.98v2.98h-2.98zm2.98 0h2.98v2.98h-2.98zm5.95 0h2.98v2.98h-2.98zm2.98 0h2.98v2.98H38.7z"/><path d="M41.67 107.16h2.98v2.98h-2.98zm8.93 0h2.98v2.98H50.6zm2.98 0h2.98v2.98h-2.98zm2.98 0h2.98v2.98h-2.98z"/><path d="M59.53 107.16h2.98v2.98h-2.98zm5.96 0h2.98v2.98h-2.98zm5.95 0h2.98v2.98h-2.98zm2.98 0h2.98v2.98h-2.98zm2.98 0h2.98v2.98H77.4z"/><path d="M80.37 107.16h2.98v2.98h-2.98z"/><path d="M83.35 107.16h2.98v2.98h-2.98zm5.95 0h2.98v2.98H89.3zm2.98 0h2.98v2.98h-2.98zm2.98 0h2.98v2.98h-2.98z"/><path d="M98.23 107.16h2.98v2.98h-2.98zm11.91 0h2.98v2.98h-2.98zM2.98 110.14h2.98v2.98H2.98zm5.95 0h2.98v2.98H8.93zm2.98 0h2.98v2.98h-2.98z"/><path d="M14.88 110.14h2.98v2.98h-2.98zm5.96 0h2.98v2.98h-2.98zm5.95 0h2.98v2.98h-2.98zm2.98 0h2.98v2.98h-2.98zm5.95 0h2.98v2.98h-2.98zm2.98 0h2.98v2.98H38.7z"/><path d="M41.67 110.14h2.98v2.98h-2.98zm8.93 0h2.98v2.98H50.6zm2.98 0h2.98v2.98h-2.98zm11.91 0h2.98v2.98h-2.98zm14.88 0h2.98v2.98h-2.98zm2.98 0h2.98v2.98h-2.98zm2.98 0h2.98v2.98h-2.98zm5.95 0h2.98v2.98h-2.98zm5.95 0h2.98v2.98h-2.98z"/><path d="M101.21 110.14h2.98v2.98h-2.98zm2.98 0h2.98v2.98h-2.98z"/><path d="M107.16 110.14h2.98v2.98h-2.98zm2.98 0h2.98v2.98h-2.98zm2.98 0h2.98v2.98h-2.98zm5.95 0h2.98v2.98h-2.98zM2.98 113.12h2.98v2.98H2.98zm5.95 0h2.98v2.98H8.93zm2.98 0h2.98v2.98h-2.98z"/><path d="M14.88 113.12h2.98v2.98h-2.98zm5.96 0h2.98v2.98h-2.98zm11.9 0h2.98v2.98h-2.98zm5.96 0h2.98v2.98H38.7z"/><path d="M41.67 113.12h2.98v2.98h-2.98zm2.98 0h2.98v2.98h-2.98zm8.93 0h2.98v2.98h-2.98zm2.98 0h2.98v2.98h-2.98zm5.95 0h2.98v2.98h-2.98zm2.98 0h2.98v2.98h-2.98zm5.95 0h2.98v2.98h-2.98zm2.98 0h2.98v2.98h-2.98zm2.98 0h2.98v2.98H77.4zm8.93 0h2.98v2.98h-2.98zm5.95 0h2.98v2.98h-2.98zm2.98 0h2.98v2.98h-2.98z"/><path d="M98.23 113.12h2.98v2.98h-2.98zm11.91 0h2.98v2.98h-2.98zm2.98 0h2.98v2.98h-2.98z"/><path d="M116.09 113.12h2.98v2.98h-2.98zm5.96 0h2.98v2.98h-2.98zM2.98 116.09h2.98v2.98H2.98zm5.95 0h2.98v2.98H8.93zm2.98 0h2.98v2.98h-2.98z"/><path d="M14.88 116.09h2.98v2.98h-2.98zm5.96 0h2.98v2.98h-2.98zm5.95 0h2.98v2.98h-2.98zm8.93 0h2.98v2.98h-2.98zm8.93 0h2.98v2.98h-2.98zm2.98 0h2.98v2.98h-2.98zm5.95 0h2.98v2.98h-2.98zm2.98 0h2.98v2.98h-2.98z"/><path d="M59.53 116.09h2.98v2.98h-2.98zm2.98 0h2.98v2.98h-2.98zm2.98 0h2.98v2.98h-2.98zm20.84 0h2.98v2.98h-2.98zm8.93 0h2.98v2.98h-2.98z"/><path d="M98.23 116.09h2.98v2.98h-2.98zm11.91 0h2.98v2.98h-2.98zm11.91 0h2.98v2.98h-2.98zM2.98 119.07h2.98v2.98H2.98zm17.86 0h2.98v2.98h-2.98zm8.93 0h2.98v2.98h-2.98z"/><path d="M32.74 119.07h2.98v2.98h-2.98zm2.98 0h2.98v2.98h-2.98zm5.95 0h2.98v2.98h-2.98zm2.98 0h2.98v2.98h-2.98zm5.95 0h2.98v2.98H50.6zm8.93 0h2.98v2.98h-2.98zm2.98 0h2.98v2.98h-2.98zm8.93 0h2.98v2.98h-2.98zm8.93 0h2.98v2.98h-2.98zm8.93 0h2.98v2.98H89.3zm11.91 0h2.98v2.98h-2.98zm2.98 0h2.98v2.98h-2.98z"/><path d="M107.16 119.07h2.98v2.98h-2.98zm11.91 0h2.98v2.98h-2.98zM2.98 122.05h2.98v2.98H2.98z"/><path d="M5.95 122.05h2.98v2.98H5.95zm2.98 0h2.98v2.98H8.93zm2.98 0h2.98v2.98h-2.98z"/><path d="M14.88 122.05h2.98v2.98h-2.98zm2.98 0h2.98v2.98h-2.98zm2.98 0h2.98v2.98h-2.98zm11.9 0h2.98v2.98h-2.98zm2.98 0h2.98v2.98h-2.98zm2.98 0h2.98v2.98H38.7zm8.93 0h2.98v2.98h-2.98zm14.88 0h2.98v2.98h-2.98zm8.93 0h2.98v2.98h-2.98zm2.98 0h2.98v2.98h-2.98zm2.98 0h2.98v2.98H77.4zm5.95 0h2.98v2.98h-2.98zm2.98 0h2.98v2.98h-2.98z"/><path d="M89.3 122.05h2.98v2.98H89.3zm5.96 0h2.98v2.98h-2.98z"/><path d="M98.23 122.05h2.98v2.98h-2.98zm11.91 0h2.98v2.98h-2.98zm5.95 0h2.98v2.98h-2.98z"/><path d="M119.07 122.05h2.98v2.98h-2.98zm2.98 0h2.98v2.98h-2.98z"/></svg>